<svg width="786" height="758" viewBox="0 0 786 758" fill="none" xmlns="http://www.w3.org/2000/svg">
<g clip-path="url(#clip0)">
<path d="M158.608 219.705C159.221 219.868 159.86 219.976 160.52 220.022L188.155 221.959C193.395 222.326 197.82 218.608 198.041 213.662C198.263 208.712 194.197 204.405 188.957 204.038L161.321 202.106C156.081 201.739 151.657 205.453 151.436 210.398C151.242 214.725 154.324 218.562 158.608 219.705Z" fill="#82261E" fill-opacity="0.08"/>
<path d="M210.591 266.789C211.204 266.953 211.848 267.062 212.508 267.108L240.144 269.04C245.379 269.406 249.803 265.692 250.03 260.743C250.25 255.798 246.182 251.481 240.944 251.124L213.308 249.191C208.068 248.825 203.644 252.538 203.424 257.484C203.23 261.81 206.312 265.648 210.591 266.789Z" fill="#82261E" fill-opacity="0.08"/>
<path d="M705.78 420.068L710.318 403.052C713.014 392.943 711.731 382.13 706.693 372.613L685.922 333.337C682.96 327.74 682.206 321.388 683.791 315.443L693.706 278.269C702.464 280.205 711.187 275.345 713.379 267.125L729.574 206.405C731.83 197.947 726.334 189.112 717.321 186.708L612.801 158.832C603.793 156.429 594.622 161.353 592.366 169.811L576.172 230.53C574.086 238.35 578.636 246.48 586.451 249.567L576.512 286.831C574.927 292.776 571.105 297.907 565.753 301.287L529.887 323.92C529.83 323.751 529.779 323.574 529.717 323.403L522.25 303.118C528.483 302.107 533.77 297.814 535.416 291.645L543.99 259.498C546.27 250.949 540.712 242.016 531.603 239.586L405.709 206.009C400.62 204.652 395.468 207.42 394.194 212.196C392.922 216.967 396.011 221.933 401.1 223.29L525.097 256.361L517.471 284.956L313.036 230.432L320.663 201.837L358.536 211.938C363.62 213.294 368.772 210.526 370.044 205.755C371.318 200.979 368.229 196.013 363.145 194.657L323.379 184.051C314.266 181.62 304.998 186.6 302.718 195.148L294.144 227.295C292.498 233.465 294.945 239.82 299.852 243.802L283.27 257.673C283.007 257.892 282.768 258.132 282.513 258.358C283.769 245.105 283.997 233.529 283.753 224.149C282.993 194.613 263.7 168.385 234.595 157.332C229.762 155.499 225.09 154.099 220.872 153.037L240.904 133.005C244.452 129.458 244.193 123.772 240.335 120.301C236.472 116.829 230.472 116.891 226.918 120.437L212.451 134.905L213.961 101.206C214.182 96.2563 210.118 91.945 204.877 91.5828C199.637 91.216 195.213 94.9297 194.992 99.8753L193.481 133.579L180.393 117.184C177.185 113.164 171.225 112.263 167.075 115.179C162.927 118.089 162.168 123.705 165.376 127.726L183.497 150.423C179.21 150.889 174.445 151.626 169.478 152.777C139.572 159.704 118.052 183.081 114.662 212.324C113.2 224.963 112.221 241.757 113.284 261.635L105.071 259.444C96.6092 257.187 88.0002 261.813 85.8822 269.754L73.9574 314.465C71.8394 322.406 77.0015 330.705 85.4635 332.961L107.495 338.838L104.384 378.809C103.997 383.744 107.92 388.162 113.154 388.686C118.385 389.205 122.932 385.625 123.319 380.69L126.187 343.823L642.091 481.419L563.532 646.744C554.515 665.716 532.305 675.306 510.719 669.549L146.418 572.387C124.832 566.629 110.347 547.252 111.981 526.311L120.089 422.147C120.476 417.212 116.55 412.789 111.319 412.27C106.089 411.752 101.541 415.332 101.154 420.267L93.0467 524.426C90.7378 554.078 111.247 581.521 141.808 589.672L506.114 686.836C536.675 694.987 568.126 681.402 580.89 654.538L660.783 486.404L682.815 492.28C691.277 494.537 699.885 489.912 702.003 481.97L713.928 437.259C715.748 430.438 712.185 423.361 705.78 420.068ZM610.266 176.671L710.636 203.44L695.479 260.27L595.109 233.5L610.266 176.671ZM528.294 354.505C529.88 348.56 533.697 343.427 539.053 340.049L576.629 316.335C585.732 310.589 592.234 301.857 594.931 291.744L604.836 254.605L675.278 273.392L665.372 310.531C662.676 320.64 663.966 331.45 668.997 340.971L689.773 380.247C692.731 385.843 693.489 392.196 691.904 398.141L687.468 414.774L523.858 371.138L528.294 354.505ZM289.933 280.899C290.932 277.153 293.064 273.835 296.095 271.3L320.448 250.924L500.838 299.035L511.809 328.833C513.176 332.54 513.373 336.48 512.375 340.221L505.44 366.221L480.907 359.678L486.239 339.686C488.357 331.744 483.195 323.446 474.733 321.189L332.053 283.135C323.591 280.878 314.983 285.504 312.865 293.445L307.532 313.437L282.999 306.894L289.933 280.899ZM467.056 337.657L462.492 354.771L325.945 318.353L330.51 301.239L467.056 337.657ZM174.536 170.243C188.83 166.931 201.361 167.711 201.452 167.716C201.548 167.722 208.632 168.273 218.048 170.784C221.172 171.617 224.547 172.666 228.01 173.98C249.774 182.246 264.204 201.884 264.772 224.018C265.155 238.903 264.325 266.569 256.127 299.732L132.642 266.798C131.026 244.07 132.259 225.86 133.539 214.844C136.079 192.927 152.172 175.424 174.536 170.243ZM684.353 474.175L93.1451 316.495L103.532 277.549L266.462 321.003C267.253 321.48 268.133 321.859 269.076 322.11L507.689 385.75C508.364 386.108 509.088 386.413 509.864 386.62L691.893 435.168C692.823 435.416 693.755 435.52 694.666 435.508L684.353 474.175Z" fill="#82261E" fill-opacity="0.08"/>
<path d="M183.202 542.291C183.777 542.445 184.369 542.55 184.983 542.598C190.214 543.035 194.698 539.385 194.996 534.441L202.374 411.75C202.667 406.804 198.662 402.442 193.434 402.011C188.199 401.568 183.714 405.222 183.418 410.162L176.043 532.859C175.777 537.224 178.87 541.136 183.202 542.291Z" fill="#82261E" fill-opacity="0.08"/>
<path d="M285.254 569.505C285.508 569.573 285.77 569.633 286.038 569.685C291.208 570.64 296.09 567.463 296.936 562.597L317.621 443.455C318.468 438.585 314.966 433.856 309.783 432.912C304.608 431.955 299.732 435.13 298.885 440L278.195 559.14C277.395 563.758 280.516 568.241 285.254 569.505Z" fill="#82261E" fill-opacity="0.08"/>
<path d="M493.813 625.134C498.145 626.289 502.771 624.436 504.719 620.519L559.425 510.446C561.628 506.015 559.559 500.613 554.798 498.39C550.045 496.159 544.399 497.952 542.195 502.383L487.495 612.453C485.29 616.889 487.361 622.286 492.116 624.513C492.671 624.777 493.238 624.981 493.813 625.134Z" fill="#82261E" fill-opacity="0.08"/>
<path d="M391.762 597.912C396.501 599.176 401.44 596.842 403.047 592.434L444.436 478.815C446.132 474.171 443.48 468.989 438.516 467.241C433.555 465.48 428.157 467.84 426.467 472.486L385.073 586.104C383.383 590.745 386.035 595.927 390.993 597.678C391.252 597.766 391.508 597.844 391.762 597.912Z" fill="#82261E" fill-opacity="0.08"/>
</g>
<defs>
<clipPath id="clip0">
<rect width="650" height="610" fill="white" transform="translate(157.705 0.461914) rotate(14.9337)"/>
</clipPath>
</defs>
</svg>
