<svg width="37" height="46" viewBox="0 0 37 46" fill="none" xmlns="http://www.w3.org/2000/svg">
<rect y="20.5385" width="36.5556" height="5" rx="2.5" fill="#BF1A0B"/>
<path d="M36.5556 29C36.5556 31.2325 36.0828 33.4431 35.1643 35.5056C34.2457 37.5682 32.8994 39.4422 31.2021 41.0208C29.5049 42.5994 27.49 43.8516 25.2724 44.706C23.0548 45.5603 20.6781 46 18.2778 46C15.8775 46 13.5007 45.5603 11.2832 44.706C9.06562 43.8516 7.05069 42.5994 5.35344 41.0208C3.65619 39.4422 2.30986 37.5682 1.39131 35.5056C0.472768 33.4431 -2.09838e-07 31.2325 0 29L5.64522 29C5.64521 30.543 5.97197 32.0708 6.60681 33.4963C7.24166 34.9218 8.17217 36.2171 9.34521 37.3081C10.5183 38.3991 11.9109 39.2646 13.4435 39.8551C14.9762 40.4455 16.6189 40.7494 18.2778 40.7494C19.9367 40.7494 21.5794 40.4455 23.1121 39.8551C24.6447 39.2646 26.0373 38.3991 27.2104 37.3081C28.3834 36.2171 29.3139 34.9218 29.9488 33.4963C30.5836 32.0708 30.9104 30.543 30.9104 29H36.5556Z" fill="#BF1A0B"/>
<path d="M0.223844 17.4916C0.19445 15.2593 0.638071 13.0425 1.52938 10.9678C2.42069 8.89302 3.74222 7.00096 5.41854 5.39961C7.09485 3.79826 9.09311 2.51898 11.2992 1.63482C13.5054 0.750651 15.8761 0.278913 18.2762 0.246537C20.6762 0.214161 23.0586 0.621781 25.2872 1.44612C27.5158 2.27047 29.5471 3.49539 31.2649 5.05095C32.9828 6.60651 34.3537 8.46225 35.2993 10.5122C36.2449 12.5622 36.7468 14.7662 36.7762 16.9985L31.1315 17.0746C31.1111 15.5318 30.7643 14.0085 30.1107 12.5917C29.4572 11.1749 28.5097 9.89229 27.3224 8.81717C26.1351 7.74206 24.7312 6.89546 23.1909 6.32572C21.6506 5.75598 20.0041 5.47426 18.3453 5.49663C16.6865 5.51901 15.048 5.84505 13.5232 6.45613C11.9985 7.06722 10.6174 7.95138 9.45884 9.05815C8.30026 10.1649 7.38689 11.4726 6.77087 12.9065C6.15485 14.3405 5.84824 15.8726 5.86856 17.4154L0.223844 17.4916Z" fill="#BF1A0B"/>
</svg>
