<svg width="1650" height="310" viewBox="0 0 1650 310" fill="none" xmlns="http://www.w3.org/2000/svg">
<path d="M69.7737 206.182C69.0525 204.585 66.8895 203.762 64.9378 204.342C62.986 204.922 61.9903 206.684 62.7116 208.28C66.1381 215.866 81.0702 223.243 82.7621 224.061C83.7757 224.547 84.9524 224.607 85.973 224.304C86.7591 224.07 87.4554 223.62 87.915 222.984C88.9644 221.524 88.3597 219.64 86.5671 218.771C81.0765 216.121 71.6622 210.363 69.7737 206.182Z" fill="#BF1A0B" fill-opacity="0.1"/>
<path d="M142.619 181.259C140.667 181.839 139.672 183.601 140.393 185.198C142.275 189.364 139.679 198.701 137.602 203.609C136.925 205.209 137.967 206.963 139.932 207.528C140.786 207.773 141.676 207.752 142.465 207.517C143.486 207.214 144.333 206.553 144.72 205.651C145.359 204.139 150.882 190.685 147.455 183.099C146.734 181.502 144.571 180.679 142.619 181.259Z" fill="#BF1A0B" fill-opacity="0.1"/>
<path d="M103.779 192.801C101.827 193.381 100.831 195.142 101.552 196.739L109.382 214.071C110.103 215.668 112.266 216.491 114.217 215.911C116.169 215.331 117.165 213.57 116.444 211.973L108.614 194.64C107.893 193.044 105.73 192.221 103.779 192.801Z" fill="#BF1A0B" fill-opacity="0.1"/>
<path d="M121.767 135.08C119.627 135.715 117.495 136.61 115.332 137.652C104.2 132.544 90.5497 131.239 77.6941 135.054C64.8385 138.869 55.46 147.007 51.0364 156.731C48.554 157.067 46.2127 157.499 44.0729 158.134C22.6524 164.491 11.6726 183.914 19.5967 201.433C25.0266 213.437 38.2399 221.894 53.6755 223.434L73.3501 267.103C74.7719 270.254 77.608 272.772 81.3371 274.193C85.0708 275.616 89.2435 275.769 93.096 274.626L177.274 249.647C185.22 247.289 189.292 240.085 186.352 233.587L166.583 189.882C177.083 180.63 180.397 167.288 174.985 155.323C167.06 137.805 143.187 128.723 121.767 135.08ZM179.289 235.683C180.787 238.994 178.71 242.669 174.661 243.871L90.4829 268.85C88.5206 269.432 86.3921 269.353 84.4882 268.629C82.5875 267.904 81.1394 266.622 80.4156 265.013L75.3166 253.694L174.168 224.361L179.289 235.683ZM159.673 186.833C159.514 186.95 159.372 187.076 159.246 187.212C158.903 187.57 158.673 187.978 158.556 188.402C158.434 188.825 158.427 189.276 158.542 189.721C158.584 189.891 158.646 190.055 158.724 190.218L171.554 218.584L72.7125 247.915L59.9447 219.574C59.8766 219.415 59.7935 219.257 59.6959 219.11C59.4223 218.695 59.0419 218.347 58.596 218.08C58.1776 217.83 57.6959 217.646 57.1685 217.553C56.9519 217.515 56.7298 217.492 56.5074 217.484C43.041 216.778 31.3305 209.663 26.6597 199.337C20.1759 185.003 29.1591 169.112 46.6856 163.911C47.3706 163.708 48.1243 163.561 48.8545 163.396C47.5787 169.535 48.1571 176.02 50.9926 182.289C51.7148 183.885 53.8787 184.708 55.8308 184.129C57.7828 183.55 58.7781 181.789 58.0559 180.193C50.8525 164.268 60.835 146.608 80.3069 140.83C99.7789 135.052 121.483 143.309 128.687 159.234C129.409 160.83 131.573 161.654 133.525 161.074C135.477 160.495 136.472 158.734 135.75 157.138C132.914 150.869 128.184 145.617 122.313 141.598C123.002 141.342 123.695 141.059 124.38 140.856C141.906 135.655 161.438 143.085 167.922 157.419C172.576 167.709 169.337 179.246 159.673 186.833Z" fill="#BF1A0B" fill-opacity="0.1"/>
<path d="M980.303 216.064C976.567 207.892 968.113 201.556 957.689 199.118C955.562 198.618 953.241 198.69 951.156 199.317C948.546 200.102 946.486 201.685 945.349 203.664C944.909 203.538 944.49 203.38 944.044 203.269C942.395 202.859 940.638 202.85 938.966 203.131L935.825 193.722C935.748 193.497 935.659 193.274 935.559 193.054C933.727 189.049 928.22 186.998 923.281 188.484L922.679 188.665C917.74 190.15 915.213 194.617 917.044 198.623C917.144 198.843 917.256 199.059 917.382 199.271L922.587 208.104C921.223 208.771 920.014 209.657 919.147 210.742C918.848 211.118 918.612 211.518 918.335 211.903C918.05 211.792 917.758 211.696 917.463 211.608C917.309 210.943 917.11 210.283 916.818 209.645C915.728 207.261 913.769 205.256 911.199 203.862C912.027 201.445 911.901 198.891 910.81 196.505C907.872 190.078 898.785 186.885 890.976 189.682C887.911 186.675 883.257 185.114 878.539 185.391C874.416 183.387 869.444 183.083 864.998 184.685C861.045 180.807 854.45 179.292 848.477 181.089C843.466 182.596 839.899 186.142 839.024 190.344C832.972 192.355 829.278 197.456 829.945 202.692C823.771 207.015 821.453 214.112 824.321 220.383C826.62 225.412 831.772 229.092 838.09 230.352C837.973 231.99 838.276 233.633 838.988 235.189C840.533 238.568 843.82 241.151 847.97 242.322C848.102 243.274 848.369 244.19 848.766 245.06C851.396 250.811 858.918 253.963 866.098 252.566L876.534 262.655C874.629 265.011 873.292 267.645 872.603 270.414L859.479 271.876C858.979 271.928 858.485 272.03 858.009 272.173C854.433 273.249 852.603 276.483 853.928 279.383L854.268 280.127C854.509 280.652 854.862 281.114 855.26 281.541L854.957 281.632C851.129 282.783 849.169 286.247 850.588 289.352C852.008 292.456 856.278 294.046 860.106 292.895L860.409 292.804C860.451 293.338 860.554 293.875 860.794 294.4L861.134 295.144C862.46 298.044 866.448 299.528 870.024 298.453C870.501 298.309 870.956 298.125 871.373 297.904L882.503 292.069C889.685 296.601 899.491 298.131 908.631 295.382L909.174 295.219C910.461 294.831 911.727 294.359 912.934 293.814L987.769 260.043C993.839 257.301 996.495 251.478 994.079 246.194C992.147 241.969 987.469 239.24 982.196 238.876C984.867 232.788 984.882 226.079 982.107 220.01L980.303 216.064ZM942.593 207.098C951.46 209.304 958.704 214.887 961.973 222.037L965.125 228.931C966.885 232.78 967.425 236.903 966.733 240.935L947.115 244.2C945.106 241.706 943.424 239.048 942.147 236.255L938.663 228.634C937.798 226.741 937.167 224.781 936.665 222.801C937.25 222.67 937.834 222.541 938.428 222.362C945.027 220.378 948.893 216.46 947.425 213.251C946.615 211.479 944.385 210.36 941.295 210.115L940.247 206.975C941.023 206.877 941.825 206.904 942.593 207.098V207.098ZM924.396 192.419L925 192.237C927.386 191.52 930.048 192.511 930.932 194.446C930.981 194.553 931.026 194.661 931.06 194.771L937.53 214.149L939.506 214.078C941.773 213.994 942.729 214.494 942.797 214.643C943.01 215.11 941.192 217.261 936.712 218.608C932.231 219.956 929.124 219.287 928.91 218.819C928.843 218.671 929.165 217.786 930.951 216.649L932.507 215.658L921.835 197.545C921.774 197.442 921.721 197.336 921.673 197.231C920.788 195.296 922.01 193.137 924.396 192.419V192.419ZM924.716 211.717L926.409 214.592C924.264 216.412 923.472 218.44 924.282 220.212C925.228 222.28 928.099 223.383 931.778 223.387C932.338 225.642 933.051 227.875 934.034 230.026L937.519 237.647C938.698 240.226 940.181 242.709 941.931 245.064L927.509 247.464C925.823 245.625 924.453 243.618 923.466 241.459L920.314 234.565C917.05 227.426 918.162 219.332 923.29 212.917C923.663 212.45 924.153 212.042 924.716 211.717V211.717ZM913.663 249.769C911.227 247.568 909.321 245.069 908.048 242.285L906.243 238.338C903.049 231.351 904.181 223.417 909.268 217.113C909.907 216.323 910.867 215.705 911.969 215.374C913.366 214.953 914.862 215.023 916.153 215.503C912.913 221.995 912.651 229.321 915.686 235.959L918.838 242.853C919.723 244.789 920.883 246.618 922.257 248.339L913.663 249.769ZM888.094 193.304L889.398 195.109L891.564 193.973C892.222 193.627 892.852 193.365 893.491 193.173C898.597 191.638 904.288 193.756 906.182 197.897C907.084 199.87 906.992 202.02 905.927 203.95L904.936 205.745L907.13 206.582C909.49 207.482 911.287 209.064 912.189 211.037C912.215 211.093 912.227 211.154 912.253 211.212C911.58 211.299 910.909 211.422 910.252 211.62C908.167 212.247 906.349 213.419 905.138 214.922C902.079 218.709 900.27 223.005 899.719 227.396C897.829 225.445 895.938 223.601 894.068 221.872C892.016 212.057 897.529 204.36 897.585 204.281L895.468 203.255L893.351 202.224C893.125 202.529 888.76 208.558 888.665 217.096C879.748 209.576 872.55 205.141 872.09 204.861L869.123 208.063C869.221 208.121 874.809 211.563 882.195 217.496C874.306 217.464 866.707 220.414 866.273 220.588L868.441 224.184C871.792 222.854 881.714 220.026 888.063 222.453C891.164 225.199 894.384 228.264 897.533 231.639C889.16 230.829 880.744 233.306 880.309 233.437L882.025 237.191C882.134 237.159 892.463 234.116 900.36 236.214C900.687 237.402 901.088 238.579 901.615 239.732L903.42 243.679C904.579 246.215 906.194 248.55 908.186 250.684L894.274 253C893.54 253.123 892.812 253.275 892.089 253.446C886.984 254.981 881.28 252.836 879.374 248.667C878.974 247.792 878.779 246.83 878.789 245.805L878.809 244.165L876.829 243.826C873.477 243.249 870.773 241.37 869.595 238.795C868.92 237.317 868.8 235.724 869.246 234.185L869.885 231.994L867.129 231.737C861.547 231.212 856.874 228.244 854.928 223.989C852.644 218.994 854.748 213.301 860.046 210.142L861.331 209.376L860.998 208.111C859.984 204.254 862.641 200.317 867.175 198.953C867.261 198.927 867.351 198.917 867.438 198.902C867.609 198.872 867.781 198.839 867.95 198.799L869.659 198.409L869.743 196.97C869.935 193.756 872.458 190.958 876.172 189.841C880.657 188.492 885.67 189.948 888.094 193.304V193.304ZM867.717 247.901L866.085 248.392C860.98 249.927 855.288 247.808 853.395 243.667C852.994 242.791 852.799 241.829 852.811 240.807L852.832 239.167L850.852 238.827C847.499 238.251 844.794 236.372 843.616 233.797C842.941 232.32 842.821 230.727 843.268 229.187L843.906 226.997L841.15 226.739C835.569 226.214 830.895 223.247 828.949 218.991C826.666 213.996 828.77 208.303 834.065 205.145L835.35 204.378L835.017 203.114C834.006 199.257 836.662 195.319 841.196 193.955C841.284 193.929 841.377 193.918 841.467 193.902C841.632 193.871 841.797 193.841 841.964 193.803L843.682 193.415L843.766 191.969C843.956 188.758 846.479 185.961 850.193 184.843C854.679 183.494 859.691 184.95 862.115 188.306L863.419 190.111L865.585 188.975C866.243 188.63 866.874 188.367 867.513 188.175C868.577 187.855 869.675 187.74 870.768 187.724C867.735 189.554 865.642 192.267 865.003 195.342C858.951 197.353 855.257 202.454 855.924 207.69C849.75 212.013 847.432 219.11 850.299 225.381C852.598 230.41 857.751 234.09 864.068 235.35C863.952 236.988 864.255 238.631 864.966 240.187C866.511 243.566 869.799 246.149 873.949 247.322C874.082 248.273 874.347 249.188 874.745 250.057C876.253 253.356 879.357 255.793 883.073 257.029C881.846 257.765 880.716 258.581 879.675 259.46L867.717 247.901ZM858.897 278.734L858.557 277.991C858.126 277.049 858.919 275.984 860.146 275.841L872.068 274.515C872.059 275.162 872.082 275.811 872.145 276.462L861.442 279.682C860.419 279.989 859.276 279.564 858.897 278.734V278.734ZM855.217 287.96C854.744 286.925 855.398 285.77 856.673 285.386L863.158 283.436L872.989 280.479C873.206 281.119 873.442 281.756 873.732 282.391C874.022 283.025 874.356 283.634 874.708 284.232L864.874 287.19L858.39 289.141C857.114 289.524 855.69 288.994 855.217 287.96V287.96ZM868.691 294.542C867.682 295.064 866.193 294.692 865.763 293.751L865.423 293.008C865.044 292.178 865.568 291.252 866.591 290.944L877.293 287.726C877.768 288.253 878.275 288.756 878.8 289.243L868.691 294.542ZM989.45 247.586C991.013 251.005 989.297 254.771 985.371 256.543L910.539 290.314C909.548 290.761 908.511 291.148 907.458 291.464L906.914 291.628C895.43 295.082 882.619 290.313 878.361 280.999C874.102 271.684 879.982 261.294 891.466 257.84L892.01 257.676C893.063 257.359 894.16 257.104 895.267 256.918L979.154 242.951C983.559 242.22 987.887 244.168 989.45 247.586V247.586ZM977.479 221.402C980.119 227.176 979.791 233.629 976.672 239.278L971.81 240.087C972.277 235.851 971.595 231.566 969.753 227.537L966.601 220.643C963.551 213.971 957.49 208.511 949.885 205.272C950.493 204.276 951.537 203.473 952.873 203.071C953.977 202.739 955.199 202.7 956.32 202.965C965.243 205.052 972.48 210.47 975.675 217.457L977.479 221.402Z" fill="#BF1A0B" fill-opacity="0.1"/>
<path d="M892.585 266.044L897.213 264.652L905.796 283.423L901.167 284.815L892.585 266.044Z" fill="#BF1A0B" fill-opacity="0.1"/>
<path d="M911.099 260.476L915.728 259.083L924.311 277.855L919.682 279.247L911.099 260.476Z" fill="#BF1A0B" fill-opacity="0.1"/>
<path d="M929.614 254.907L934.243 253.515L942.825 272.286L938.197 273.678L929.614 254.907Z" fill="#BF1A0B" fill-opacity="0.1"/>
<path d="M949.846 253.092L954.475 251.7L959.624 262.963L954.995 264.355L949.846 253.092Z" fill="#BF1A0B" fill-opacity="0.1"/>
<path d="M969.219 249.401L973.848 248.009L977.281 255.517L972.652 256.909L969.219 249.401Z" fill="#BF1A0B" fill-opacity="0.1"/>
<path d="M586.818 95.6681C583.977 73.908 569.748 56.2713 547.485 46.1989C542.107 30.1741 507.032 14.4269 505.515 13.7532C504.529 13.3094 503.3 13.3139 502.308 13.7756C501.316 14.2313 500.687 15.0733 500.648 15.998C500.254 24.8144 499.4 34.7016 498.518 38.5621C490.556 38.725 483.35 39.3353 478.443 40.2246C475.869 26.8415 459.324 20.9495 458.564 20.6861C456.892 20.1062 454.959 20.7348 454.244 22.0916C446.75 36.3131 449.099 45.5704 451.508 50.1731C445.742 51.9416 435.868 56.9611 428.373 71.1827C427.658 72.5394 428.433 74.1066 430.106 74.6865C430.866 74.9498 447.55 80.5782 461.255 72.8385C464.707 77.477 471.389 84.1453 479.196 90.4702C475.676 92.4793 472.323 96.454 469.033 102.697C468.318 104.054 469.093 105.621 470.766 106.201C471.666 106.513 492.322 113.503 507.709 107.305C533.99 115.933 562.269 112.641 585.557 98.0602C586.46 97.4944 586.938 96.5884 586.818 95.6681ZM506.996 20.6257C516.536 25.3448 531.682 34.0696 538.345 42.5977C529.501 39.8577 516.997 38.6773 505.171 38.5364C506.105 33.7573 506.685 25.9861 506.996 20.6257ZM476.525 102.224C480.526 95.5358 483.388 94.4642 484.121 94.2958C489.133 98.0192 494.405 101.425 499.478 103.975C490.938 105.446 481.375 103.509 476.525 102.224ZM483.817 94.0838L483.821 94.0776C483.828 94.0827 483.836 94.0875 483.843 94.0928C483.827 94.085 483.834 94.0922 483.817 94.0838ZM508.79 101.965C491.105 95.8339 468.396 74.0327 465.383 67.732C465.061 67.0562 464.415 66.5235 463.609 66.2438C463.425 66.1802 463.232 66.1302 463.034 66.0929C461.966 65.8983 460.844 66.15 460.05 66.7619C451.917 73.0283 441.206 71.7959 435.913 70.6384C444.965 55.5844 456.107 54.5853 456.673 54.5461C457.887 54.4767 458.943 53.8531 459.436 52.95C459.935 52.0369 459.75 50.9611 458.976 50.1823C458.663 49.867 451.786 42.6547 458.962 26.9023C463.638 29.2238 472.157 34.6945 472.195 43.717C472.198 44.6055 472.749 45.4374 473.661 45.9291C474.58 46.4264 475.733 46.5141 476.744 46.1732C484.442 43.5855 519.564 41.8335 537.248 47.9646C561.143 56.2483 576.664 73.2441 580.058 94.7391C558.557 107.603 532.684 110.249 508.79 101.965Z" fill="#BF1A0B" fill-opacity="0.1"/>
<path d="M532.098 78.1121C538.051 66.8174 547.191 61.8042 547.283 61.7542C548.796 60.9403 549.213 59.2875 548.218 58.058C547.22 56.8334 545.186 56.4883 543.673 57.2904C543.232 57.5233 532.827 63.1465 526.046 76.0138C519.265 88.8812 521.444 98.867 521.541 99.2864C521.749 100.198 522.508 100.914 523.486 101.253C524.062 101.453 524.715 101.521 525.379 101.422C527.167 101.152 528.345 99.7599 528.012 98.309C527.991 98.2229 526.092 89.5102 532.098 78.1121Z" fill="#BF1A0B" fill-opacity="0.1"/>
<path d="M536.112 53.8615C535.112 52.6359 533.083 52.2928 531.567 53.0939C531.127 53.3265 520.722 58.95 513.941 71.8171C510.319 78.6895 509.299 84.723 509.084 88.5747C509.019 89.7175 509.851 90.7261 511.078 91.1513C511.43 91.2732 511.816 91.3478 512.221 91.3634C514.038 91.4317 515.575 90.2922 515.659 88.8189C515.853 85.4075 516.76 80.0518 519.993 73.9155C525.946 62.6208 535.086 57.6076 535.178 57.5576C536.69 56.7438 537.107 55.091 536.112 53.8615Z" fill="#BF1A0B" fill-opacity="0.1"/>
<path d="M551.55 81.9522C554.892 83.1111 558.761 81.8527 560.189 79.1415C561.618 76.4303 560.067 73.293 556.724 72.1341C553.381 70.9753 549.513 72.2337 548.084 74.9448C546.655 77.656 548.207 80.7933 551.55 81.9522Z" fill="#BF1A0B" fill-opacity="0.1"/>
<path d="M1305.8 79.8244L1217.89 57.3539C1212.7 56.0265 1207.14 58.3718 1205.5 62.5814L1203.52 67.6713C1196.44 85.8325 1202.4 105.467 1219.07 118.911C1220.36 119.946 1222.44 119.947 1223.73 118.899C1225 117.854 1225.01 116.164 1223.71 115.123C1208.8 103.096 1203.47 85.5288 1209.8 69.2761L1211.78 64.1862C1212.33 62.7813 1214.18 62.0006 1215.91 62.4436L1303.82 84.9141C1305.55 85.3571 1306.51 86.8569 1305.97 88.2618L1303.98 93.3517C1297.65 109.604 1280.84 121.509 1260.1 124.419C1258.31 124.67 1257.11 126.055 1257.42 127.505C1257.63 128.523 1258.54 129.308 1259.67 129.598C1260.16 129.723 1260.69 129.757 1261.22 129.681C1284.4 126.426 1303.19 113.123 1310.26 94.9565L1312.24 89.8666C1313.88 85.6575 1310.99 81.1517 1305.8 79.8244Z" fill="#BF1A0B" fill-opacity="0.1"/>
<path d="M1294.04 54.5438C1301.57 51.2586 1305.66 43.4453 1303.34 36.7512C1302.85 35.3277 1301.04 34.4947 1299.28 34.8943C1297.53 35.2911 1296.51 36.7596 1297 38.1831C1298.47 42.4206 1295.68 47.759 1290.9 49.8448C1283.36 53.1279 1279.27 60.9412 1281.6 67.6374C1281.88 68.4538 1282.59 69.0723 1283.48 69.3804C1284.14 69.6089 1284.91 69.6649 1285.66 69.4943C1287.41 69.0974 1288.43 67.6239 1287.93 66.2054C1286.46 61.9657 1289.25 56.6275 1294.04 54.5438Z" fill="#BF1A0B" fill-opacity="0.1"/>
<path d="M1275.83 48.2459C1283.37 44.9628 1287.46 37.1494 1285.13 30.4533C1284.65 29.0319 1282.83 28.1996 1281.07 28.5964C1279.32 28.9932 1278.3 30.4668 1278.8 31.8852C1280.27 36.1247 1277.48 41.4631 1272.69 43.5469C1265.16 46.8321 1261.07 54.6454 1263.39 61.3395C1263.67 62.1559 1264.39 62.7744 1265.28 63.0825C1265.94 63.311 1266.7 63.3649 1267.45 63.1964C1269.21 62.7995 1270.22 61.331 1269.73 59.9075C1268.26 55.6699 1271.05 50.3317 1275.83 48.2459Z" fill="#BF1A0B" fill-opacity="0.1"/>
<path d="M1257.68 41.9696C1265.21 38.6844 1269.29 30.871 1266.98 24.1769C1266.49 22.7556 1264.68 21.9205 1262.92 22.3201C1261.17 22.7139 1260.15 24.1875 1260.64 25.6041C1262.11 29.8415 1259.32 35.1799 1254.54 37.2657C1247 40.5488 1242.91 48.3621 1245.24 55.0583C1245.52 55.8748 1246.23 56.4932 1247.12 56.8014C1247.78 57.0298 1248.55 57.0858 1249.29 56.9202C1251.05 56.5234 1252.07 55.0499 1251.57 53.6314C1250.1 49.3866 1252.89 44.0533 1257.68 41.9696Z" fill="#BF1A0B" fill-opacity="0.1"/>
<path d="M1293.99 136.575C1293.86 135.651 1293.12 134.883 1292.1 134.627L1180.75 106.787C1179.73 106.531 1178.63 106.839 1177.97 107.565C1177.3 108.291 1177.21 109.294 1177.72 110.106L1181.77 116.474C1184.16 120.227 1188.07 122.944 1192.8 124.127L1271.32 143.76C1276.05 144.943 1281.03 144.45 1285.35 142.373L1292.65 138.842C1293.58 138.392 1294.11 137.498 1293.99 136.575ZM1282.79 138.358C1279.72 139.843 1276.15 140.194 1272.78 139.35L1194.26 119.716C1190.88 118.872 1188.07 116.929 1186.37 114.25L1185.4 112.729L1284.53 137.515L1282.79 138.358Z" fill="#BF1A0B" fill-opacity="0.1"/>
<path d="M1329.95 97.4532C1323.65 91.5602 1309.76 93.0784 1308.2 93.2658C1306.57 93.468 1305.44 94.7097 1305.69 96.0506C1305.93 97.3915 1307.44 98.312 1309.08 98.1125C1312.21 97.7327 1321.93 97.3775 1325.46 100.689C1327.06 102.18 1327.32 104.405 1326.24 107.473C1322.95 116.893 1297.8 117.136 1288.36 116.433L1286.22 116.285C1284.58 116.168 1283.13 117.168 1282.99 118.515C1282.87 119.698 1283.8 120.757 1285.14 121.072C1285.32 121.116 1285.51 121.145 1285.71 121.156L1287.84 121.305C1289.42 121.424 1326.65 124.049 1331.98 108.823C1333.63 104.09 1332.95 100.266 1329.95 97.4532Z" fill="#BF1A0B" fill-opacity="0.1"/>
<path d="M1639.96 243.132C1638.91 242.067 1637.34 242.222 1636.44 243.477C1635.55 244.731 1635.68 246.611 1636.73 247.674C1642.14 253.142 1645 259.261 1645.01 265.371C1645.01 269.472 1643.78 272.94 1641.24 275.971C1636.99 281.039 1629.08 284.815 1617.74 287.193C1607.55 289.328 1594.8 290.364 1578.74 290.326C1553.93 290.286 1536.44 287.725 1525.49 282.52C1529.71 278.941 1534.22 274.645 1539.06 269.604C1540.52 271.694 1542.62 273.076 1544.97 273.359C1549.86 273.948 1554.26 269.631 1554.73 263.765C1555.05 259.843 1555.06 255.893 1554.76 252.002C1559.14 246.786 1563.1 241.862 1566.65 237.192C1568.65 241.278 1570.03 245.585 1570.75 250.041C1571.37 253.837 1571.52 257.768 1571.2 261.724C1570.73 267.586 1574.32 272.833 1579.22 273.424C1584.1 274.012 1588.46 269.727 1588.94 263.822C1589.43 257.826 1589.19 251.825 1588.24 245.985C1587.25 239.835 1585.45 233.896 1582.9 228.267C1587.69 228.445 1592.38 228.911 1596.91 229.651C1601.08 235.951 1603.65 242.813 1604.54 250.062C1605.02 253.888 1605.02 257.822 1604.55 261.755C1603.86 267.586 1607.25 273.021 1612.11 273.871C1616.93 274.715 1621.5 270.682 1622.2 264.811C1622.91 258.834 1622.9 252.828 1622.17 246.958C1621.73 243.426 1621.03 239.933 1620.07 236.512C1622.56 237.649 1624.92 238.894 1627.15 240.247C1628.36 240.981 1629.88 240.427 1630.51 238.943C1631.14 237.477 1630.65 235.684 1629.42 234.938C1615.7 226.608 1596.73 222.017 1577.23 222.233C1578.57 220.156 1579.82 218.132 1580.98 216.158C1588.3 203.714 1591.85 193.516 1591.85 184.982C1591.85 179.114 1590.14 174.103 1586.77 170.089C1579.71 161.689 1567.75 160.366 1553.11 166.361C1539.06 172.111 1524.02 183.978 1510.74 199.775C1491.5 222.661 1479.55 249.535 1479.55 269.908C1479.55 278.357 1481.7 285.388 1485.78 290.241C1489.17 294.267 1493.33 296.279 1498.23 296.278C1503.43 296.278 1509.46 294.024 1516.28 289.515C1517.68 288.591 1519.12 287.57 1520.59 286.456C1531.98 293.02 1551.03 296.238 1578.73 296.282C1594.56 296.308 1608.36 295.207 1618.6 293.06C1631.15 290.43 1639.71 286.217 1644.77 280.183C1648.25 276.034 1650.01 271.047 1650 265.363C1649.99 257.452 1646.52 249.765 1639.96 243.132V243.132ZM1613.93 234.004C1615.53 238.472 1616.65 243.115 1617.23 247.827C1617.89 253.132 1617.9 258.566 1617.25 263.977C1616.95 266.567 1614.97 268.351 1612.83 267.977C1610.69 267.602 1609.19 265.184 1609.5 262.589C1610.03 258.091 1610.03 253.583 1609.48 249.192C1608.7 242.818 1606.79 236.733 1603.81 231.022C1607.32 231.846 1610.7 232.841 1613.93 234.004V234.004ZM1549.76 263.197C1549.57 265.628 1547.9 267.459 1545.88 267.459C1544.65 267.459 1543.53 266.783 1542.79 265.639C1545.11 263.122 1547.51 260.441 1549.98 257.595C1549.98 259.461 1549.91 261.332 1549.76 263.197ZM1583.34 247.117C1584.2 252.395 1584.41 257.822 1583.97 263.252C1583.76 265.849 1581.86 267.754 1579.71 267.495C1577.55 267.235 1575.97 264.9 1576.17 262.291C1576.54 257.767 1576.36 253.265 1575.65 248.908C1574.73 243.181 1572.86 237.685 1570.12 232.538C1571.16 231.104 1572.17 229.694 1573.14 228.308C1574.45 228.249 1575.77 228.205 1577.1 228.19C1580.17 234.138 1582.27 240.498 1583.34 247.117ZM1542.68 178.346C1546.46 180.15 1550 182.491 1553.2 185.329C1556.81 188.526 1560.04 192.362 1562.79 196.729C1564.02 198.681 1563.83 201.373 1562.34 202.991C1560.63 204.849 1557.89 204.514 1556.49 202.288C1554.2 198.658 1551.52 195.475 1548.53 192.829C1544.2 188.99 1539.25 186.294 1533.76 184.766C1536.73 182.392 1539.71 180.245 1542.68 178.346ZM1493.69 235.756C1497.59 237.362 1501.25 239.532 1504.6 242.228C1508.32 245.229 1511.69 248.888 1514.61 253.105C1515.91 254.991 1515.82 257.694 1514.39 259.392C1512.75 261.339 1510.01 261.15 1508.52 259.003C1506.1 255.499 1503.31 252.461 1500.22 249.977C1497.14 247.491 1493.73 245.556 1490.07 244.186C1491.13 241.406 1492.35 238.59 1493.69 235.756V235.756ZM1513.86 284.304C1502.61 291.735 1494.58 292.298 1489.31 286.023C1486.14 282.259 1484.54 276.837 1484.54 269.908C1484.54 263.823 1485.8 256.948 1488.12 249.704C1491.49 250.91 1494.62 252.651 1497.43 254.914C1500.11 257.078 1502.55 259.73 1504.67 262.794C1508.02 267.635 1514.21 268.017 1517.92 263.609C1521.18 259.729 1521.41 253.584 1518.46 249.314C1515.24 244.657 1511.51 240.612 1507.39 237.292C1503.97 234.534 1500.25 232.281 1496.31 230.553C1498.36 226.687 1500.64 222.817 1503.13 218.995C1508.23 219.338 1515.21 220.913 1521.65 226.1C1524.34 228.264 1526.77 230.916 1528.89 233.98C1532.04 238.53 1537.69 239.2 1541.49 235.5C1545.31 231.773 1545.82 225.036 1542.68 220.5C1540.7 217.632 1538.5 214.971 1536.15 212.589C1535.1 211.524 1533.53 211.675 1532.63 212.929C1531.74 214.182 1531.87 216.062 1532.92 217.127C1535.04 219.282 1537.03 221.692 1538.83 224.291C1540.22 226.308 1540 229.255 1538.32 230.887C1536.65 232.524 1534.14 232.211 1532.75 230.188C1530.32 226.684 1527.53 223.647 1524.44 221.163C1519.39 217.088 1513.4 214.466 1506.93 213.444C1508.91 210.68 1511 207.959 1513.18 205.299C1516.89 206.35 1520.42 207.874 1523.71 209.846C1524.92 210.573 1526.44 210.01 1527.06 208.522C1527.68 207.053 1527.19 205.262 1525.96 204.524C1523.22 202.882 1520.33 201.528 1517.33 200.461C1520.82 196.547 1524.42 192.918 1528.06 189.619C1534.74 190.56 1540.63 193.243 1545.56 197.611C1548.16 199.917 1550.49 202.696 1552.5 205.87C1555.66 210.885 1561.84 211.588 1565.7 207.397C1569.11 203.698 1569.57 197.572 1566.78 193.148C1563.74 188.324 1560.17 184.085 1556.18 180.547C1553.78 178.419 1551.21 176.542 1548.51 174.931C1550.6 173.818 1552.68 172.836 1554.73 171.995C1560.27 169.728 1565.31 168.601 1569.7 168.601C1575.43 168.601 1580.05 170.512 1583.24 174.306C1585.68 177.203 1586.86 180.695 1586.86 184.982C1586.86 192.15 1583.51 201.489 1576.9 212.739C1573.59 218.362 1569.44 224.929 1565.17 230.23C1550.29 248.698 1532.27 272.143 1513.86 284.304V284.304Z" fill="#BF1A0B" fill-opacity="0.1"/>
</svg>
