<svg width="910" height="680" viewBox="0 0 910 680" fill="none" xmlns="http://www.w3.org/2000/svg">
<g filter="url(#filter0_d)">
<rect x="50" y="50" width="790" height="560" fill="#BF1A0B"/>
</g>
<path d="M411.108 509.514L402.835 511.461L393.776 472.985C397.69 470.989 399.779 465.798 398.526 460.475C397.096 454.403 391.852 450.424 386.835 451.605L377.462 453.812C376.438 454.053 375.845 455.253 376.136 456.492C376.428 457.731 377.494 458.54 378.518 458.299L387.891 456.092C390.864 455.392 393.972 457.75 394.819 461.348C395.666 464.946 393.936 468.443 390.963 469.143L373.759 473.193C368.979 474.318 366.199 479.94 367.561 485.725L371.481 502.379C372.275 505.748 370.655 509.022 367.872 509.677C365.088 510.333 362.178 508.125 361.385 504.756L357.464 488.102C356.102 482.317 351.105 478.526 346.326 479.652C341.546 480.777 338.765 486.399 340.127 492.184L341.705 498.886C342.423 501.937 340.957 504.903 338.435 505.496C335.914 506.09 333.279 504.09 332.56 501.039L330.983 494.337C329.621 488.552 324.624 484.761 319.844 485.886L292.012 492.439C289.039 493.139 285.932 490.781 285.085 487.183C284.237 483.585 285.967 480.088 288.94 479.388L369.986 460.308C371.01 460.067 371.603 458.867 371.311 457.628C371.02 456.389 369.953 455.58 368.93 455.821L359.476 458.047C359.477 458.043 359.479 458.039 359.481 458.036C363.529 449.853 363.035 438.79 358.162 428.442C357.342 426.702 355.824 425.55 354.201 425.435C344.543 424.753 336.359 429.234 332.31 437.421C331.171 439.723 330.387 442.221 329.952 444.853C326.479 442.584 322.526 441.787 318.782 442.669C317.797 442.901 316.863 443.244 315.98 443.678C313.905 440.212 310.802 436.591 306.32 434.65C305.294 434.207 304.231 434.805 303.943 435.986C303.655 437.168 304.253 438.486 305.278 438.929C308.655 440.391 311.074 443.172 312.746 445.896C308.148 450.101 305.99 457.45 307.757 464.958C308.159 466.664 308.742 468.287 309.492 469.814L287.884 474.902C282.866 476.083 279.948 481.984 281.377 488.056C282.63 493.379 286.816 497.093 291.209 497.132L300.268 535.609L291.995 537.557C289.947 538.039 288.756 540.447 289.339 542.926L290.764 548.978C292.03 554.353 296.672 557.875 301.113 556.829L303.276 556.32L304.719 562.451C305.43 565.47 308.038 567.449 310.532 566.861L407.591 544.011C410.086 543.424 411.537 540.489 410.826 537.47L409.383 531.339L411.545 530.83C415.987 529.784 418.57 524.561 417.304 519.186L415.88 513.134C415.296 510.655 413.155 509.032 411.108 509.514ZM335.678 439.977C339.108 433.042 345.896 429.405 354.3 429.998C354.516 430.013 354.725 430.172 354.833 430.402C359.075 439.408 359.541 448.548 356.113 455.48C355.396 456.929 354.518 458.254 353.503 459.418C353.491 459.432 353.481 459.447 353.47 459.46L340.951 462.408L343.794 456.66C345.244 456.744 346.673 456.624 348.068 456.296C348.711 456.144 349.348 455.949 349.975 455.71C350.961 455.335 351.434 454.054 351.032 452.849C350.631 451.643 349.505 450.97 348.52 451.346C347.731 451.646 346.926 451.857 346.108 451.982L347.528 449.11C348.978 449.194 350.408 449.075 351.802 448.746C352.446 448.595 353.082 448.399 353.71 448.16C354.696 447.785 355.169 446.504 354.767 445.299C354.365 444.094 353.24 443.419 352.255 443.796C351.466 444.096 350.66 444.307 349.842 444.432L351.651 440.775C352.169 439.728 351.834 438.308 350.904 437.602C349.974 436.897 348.8 437.173 348.283 438.22L346.474 441.877C346.192 440.917 345.979 439.932 345.836 438.926C345.658 437.668 344.663 436.733 343.613 436.837C342.566 436.94 341.858 438.045 342.036 439.303C342.394 441.839 343.111 444.27 344.162 446.551L342.74 449.426C342.458 448.467 342.244 447.482 342.102 446.475C341.924 445.217 340.929 444.282 339.879 444.386C338.83 444.491 338.123 445.595 338.301 446.852C338.66 449.389 339.377 451.82 340.428 454.101L336.044 462.964C332.674 454.651 332.525 446.353 335.678 439.977ZM311.464 464.085C310.178 458.622 311.629 453.27 314.823 450.022C315.577 451.871 315.905 453.192 315.915 453.234C316.208 454.47 317.273 455.276 318.295 455.036C319.319 454.795 319.912 453.595 319.621 452.356C319.573 452.155 319.115 450.272 318.048 447.761C318.618 447.506 319.215 447.302 319.838 447.155C323.133 446.379 326.644 447.316 329.552 449.723C329.527 454.433 330.511 459.425 332.495 464.398L313.384 468.897C312.515 467.425 311.87 465.81 311.464 464.085ZM374.815 477.68L390.12 474.077L392.226 483.021L371.96 487.792L371.268 484.852C370.488 481.542 372.08 478.324 374.815 477.68ZM347.382 484.139C350.118 483.495 352.977 485.664 353.757 488.975L354.449 491.915L344.526 494.251L343.834 491.311C343.055 488.001 344.646 484.783 347.382 484.139ZM327.275 495.21L327.967 498.149L297.074 505.423L294.968 496.478L320.9 490.373C323.636 489.729 326.496 491.899 327.275 495.21ZM413.597 520.059C414.28 522.96 412.886 525.779 410.489 526.343L391.174 530.891C390.15 531.132 389.557 532.331 389.849 533.57C390.14 534.809 391.207 535.618 392.23 535.377L405.675 532.212L407.119 538.343C407.247 538.888 406.985 539.418 406.535 539.524L309.476 562.375C309.026 562.481 308.555 562.123 308.426 561.578L306.983 555.447L383.698 537.386C384.722 537.145 385.315 535.945 385.024 534.706C384.732 533.467 383.666 532.658 382.642 532.899L300.056 552.342C297.66 552.907 295.154 551.006 294.471 548.105L293.051 542.043L339.938 531.005C340.962 530.764 341.556 529.564 341.264 528.325C340.972 527.086 339.906 526.277 338.882 526.518L303.975 534.736L298.13 509.91L329.048 502.631C330.577 507.746 335.128 511.011 339.492 509.983C343.856 508.956 346.472 504.005 345.559 498.744L355.505 496.402L357.678 505.629C359.053 511.472 364.1 515.301 368.928 514.164C373.756 513.028 376.564 507.349 375.189 501.506L373.016 492.279L393.283 487.508L399.127 512.334L347.414 524.509C346.39 524.75 345.797 525.95 346.089 527.189C346.38 528.428 347.447 529.237 348.471 528.996L412.172 514.007L413.597 520.059Z" fill="#FFFBFB" fill-opacity="0.18"/>
<path d="M334.651 540.979L334.625 540.986C333.602 541.227 333.008 542.426 333.3 543.665C333.592 544.904 334.658 545.713 335.682 545.472L335.707 545.466C336.731 545.225 337.325 544.025 337.033 542.786C336.741 541.548 335.675 540.738 334.651 540.979Z" fill="#FFFBFB" fill-opacity="0.18"/>
<path d="M341.412 545.045L341.387 545.051C340.363 545.292 339.77 546.492 340.061 547.731C340.353 548.97 341.419 549.779 342.443 549.538L342.469 549.532C343.492 549.291 344.086 548.091 343.794 546.852C343.503 545.613 342.436 544.804 341.412 545.045Z" fill="#FFFBFB" fill-opacity="0.18"/>
<path d="M413.141 525.799L413.167 525.793C414.19 525.552 414.784 524.352 414.492 523.113C414.201 521.874 413.134 521.065 412.11 521.306L412.085 521.312C411.061 521.553 410.468 522.753 410.759 523.992C411.051 525.231 412.117 526.04 413.141 525.799Z" fill="#FFFBFB" fill-opacity="0.18"/>
<path d="M671.653 217.363C674.981 216.198 677.659 213.802 679.191 210.617L690.797 186.503C690.812 186.475 690.829 186.448 690.843 186.419C690.857 186.39 690.867 186.361 690.88 186.332L694.756 178.277C695.317 177.11 694.827 175.71 693.66 175.148C692.494 174.587 691.094 175.078 690.532 176.244L687.631 182.272L677.657 177.472C677.141 177.224 676.552 177.173 676 177.33C672.027 178.458 667.76 178.085 663.997 176.283C660.232 174.461 657.279 171.36 655.682 167.55C655.46 167.022 655.053 166.593 654.536 166.344L644.563 161.544L658.492 132.602L668.461 137.4C668.978 137.649 669.567 137.7 670.119 137.543C674.1 136.412 678.365 136.787 682.129 138.598C685.892 140.409 688.846 143.509 690.446 147.326C690.667 147.855 691.075 148.284 691.591 148.532L701.56 153.33L699.741 157.111C699.46 157.694 699.442 158.336 699.641 158.902C699.839 159.468 700.253 159.958 700.836 160.239C702.002 160.8 703.403 160.31 703.965 159.144L706.8 153.253C706.8 153.252 706.801 153.252 706.801 153.251C706.801 153.251 706.801 153.25 706.801 153.25L710.277 146.03C715.61 134.947 712.405 127.323 710.065 121.755C708.676 118.452 707.927 116.508 708.673 114.957L710.513 111.134L710.746 111.246C711.306 111.515 711.951 111.551 712.537 111.346C713.124 111.141 713.605 110.71 713.875 110.15L718.334 100.874C719.317 98.832 719.443 96.5218 718.689 94.3693C717.935 92.2167 716.395 90.4897 714.353 89.5068L700.393 82.7878C698.35 81.8049 696.04 81.6787 693.888 82.4325C691.735 83.1862 690.008 84.7261 689.026 86.7675L684.558 96.04C684.288 96.6002 684.251 97.2447 684.457 97.8316L684.457 97.832C684.662 98.4187 685.093 98.8998 685.653 99.1693L685.886 99.2815L684.046 103.104C683.3 104.655 681.313 105.283 677.865 106.258C672.054 107.902 664.095 110.154 658.761 121.236L655.286 128.457C655.286 128.457 655.286 128.457 655.285 128.458C655.285 128.458 655.285 128.459 655.285 128.459L639.362 161.542C639.348 161.569 639.332 161.594 639.319 161.622C639.306 161.649 639.296 161.677 639.284 161.705L627.676 185.824C626.143 189.009 625.941 192.595 627.107 195.924C629.271 202.105 635.595 205.663 641.849 204.57C644.552 209.509 650.152 212.204 655.699 211.236C658.746 216.805 665.472 219.528 671.653 217.363V217.363ZM693.249 88.8013C693.689 87.8873 694.466 87.1966 695.437 86.8565C696.408 86.5165 697.446 86.5717 698.36 87.0116L712.32 93.7305C713.234 94.1704 713.925 94.9474 714.265 95.9185C714.605 96.8896 714.55 97.9276 714.11 98.8426L710.666 106.006L689.798 95.9625L693.249 88.8013ZM679.141 110.769C682.962 109.688 686.571 108.666 688.27 105.137L690.11 101.315L706.289 109.101L704.449 112.924C702.751 116.454 704.205 119.912 705.743 123.572C707.959 128.843 710.471 134.817 706.053 143.997L703.593 149.107L694.399 144.682C692.289 140.19 688.683 136.551 684.162 134.375C679.641 132.199 674.547 131.651 669.72 132.804L660.526 128.379L662.985 123.27C667.403 114.089 673.639 112.325 679.141 110.769ZM660.173 209.59C662.397 208.277 664.188 206.337 665.339 203.955C665.902 202.79 665.414 201.389 664.249 200.825C663.083 200.262 661.682 200.75 661.118 201.915C660.125 203.97 658.397 205.516 656.251 206.267C651.814 207.821 646.941 205.475 645.387 201.039C644.636 198.893 644.765 196.578 645.752 194.52C646.311 193.352 645.819 191.953 644.651 191.393C643.484 190.834 642.084 191.326 641.524 192.494C640.381 194.879 639.983 197.489 640.344 200.046C636.545 200.388 632.846 198.132 631.531 194.375C630.779 192.228 630.91 189.913 631.9 187.857L642.531 165.768L651.729 170.195C653.836 174.678 657.439 178.317 661.965 180.507C666.491 182.674 671.582 183.219 676.4 182.069L685.598 186.496L674.968 208.584C673.978 210.641 672.251 212.187 670.104 212.939C666.347 214.255 662.276 212.772 660.173 209.59V209.59Z" fill="#FFFBFB" fill-opacity="0.18"/>
<path d="M686.924 158.046C687.485 156.88 686.995 155.48 685.829 154.918L666.238 145.489C665.072 144.928 663.671 145.418 663.109 146.585C662.829 147.168 662.811 147.81 663.009 148.376C663.207 148.942 663.622 149.432 664.205 149.713L683.795 159.142C684.962 159.703 686.363 159.213 686.924 158.046V158.046Z" fill="#FFFBFB" fill-opacity="0.18"/>
<path d="M680.939 165.077L661.348 155.649C660.182 155.087 658.781 155.578 658.22 156.744C657.939 157.327 657.921 157.969 658.12 158.535C658.318 159.101 658.732 159.592 659.315 159.872L678.906 169.301C680.072 169.862 681.473 169.372 682.034 168.206C682.596 167.039 682.105 165.639 680.939 165.077V165.077Z" fill="#FFFBFB" fill-opacity="0.18"/>
<path d="M694.034 167.13C693.754 167.711 693.736 168.348 693.933 168.91C694.132 169.477 694.548 169.968 695.133 170.25C696.299 170.811 697.704 170.312 698.266 169.146C698.827 167.979 698.336 166.579 697.17 166.017C696.004 165.456 694.603 165.946 694.041 167.113L694.034 167.13Z" fill="#FFFBFB" fill-opacity="0.18"/>
<path d="M685.567 459.491L671.739 453.665C671.725 453.659 671.712 453.651 671.699 453.645C671.685 453.64 671.671 453.636 671.657 453.63L649.584 444.33C651.54 438.477 652.764 432.268 653.144 426.207C653.245 424.592 652.015 423.198 650.403 423.1C648.788 422.999 647.397 424.226 647.296 425.841C646.957 431.254 645.881 436.798 644.166 442.047L599.925 423.416C599.209 423.113 598.402 423.109 597.682 423.403C596.962 423.696 596.389 424.263 596.088 424.979C589.076 441.639 591.928 460.025 601.974 473.599C581.38 470.214 564.846 447.364 562.062 426.14C559.005 402.849 569.036 380.518 586.456 371.834C587.465 371.331 588.096 370.293 588.078 369.166C588.005 364.508 591.645 360.511 596.547 359.869C601.452 359.224 606.002 362.146 607.13 366.665C607.403 367.759 608.291 368.603 609.386 368.826C624.17 371.851 637.241 384.17 643.514 400.996C644.079 402.512 645.766 403.283 647.282 402.718C648.799 402.152 649.569 400.465 649.004 398.949C647.497 394.907 645.616 391.063 643.413 387.489C652.1 384.122 661.74 376.924 665.171 368.825C665.625 367.751 665.4 366.51 664.597 365.664C657.65 358.354 643.014 354.906 633.254 356.058C631.331 348.363 626.195 339.347 619.696 335.602C618.685 335.02 617.427 335.092 616.49 335.786C610.805 339.995 606.943 348.437 605.611 355.918C602.742 354.315 599.319 353.596 595.785 354.06C588.579 355.004 583.075 360.583 582.309 367.395C573.508 372.248 566.14 380.422 561.445 390.588C556.371 401.57 554.576 414.128 556.253 426.902C557.92 439.608 564.273 453.147 573.25 463.118C580.611 471.294 589.23 476.664 598.236 478.819C601.295 479.551 604.399 479.911 607.513 479.885C611.735 483.924 616.745 487.277 622.442 489.677C624.987 490.749 627.587 491.6 630.22 492.231C640.167 494.611 650.585 493.836 660.247 489.9C672.465 484.922 682.013 475.486 687.13 463.328C687.757 461.837 687.057 460.119 685.567 459.491V459.491ZM632.714 362.055C640.124 360.709 652.457 363.175 658.863 368.339C655.276 374.437 646.972 380.125 639.985 382.501C638.017 379.916 635.869 377.516 633.556 375.348C630.443 372.43 627.075 369.958 623.537 367.973C625.043 365.768 627.863 362.933 632.714 362.055V362.055ZM618.446 341.842C622.647 345.257 626.17 351.868 627.572 357.482C623.668 359.076 620.389 361.841 618.2 365.406C616.247 364.615 614.26 363.964 612.247 363.466C611.899 362.576 611.465 361.734 610.962 360.944C611.094 354.857 614.108 346.287 618.446 341.842V341.842ZM655.014 469.285L646.995 449.597L666.585 457.852C663.919 462.731 659.925 466.678 655.014 469.285V469.285ZM614.364 435.854L633.958 444.105L614.265 452.127C612.698 446.79 612.732 441.172 614.364 435.854ZM636.167 449.532L627.913 469.126C623.031 466.461 619.082 462.467 616.475 457.554L636.167 449.532ZM641.568 451.805L649.588 471.496C644.25 473.064 638.633 473.03 633.313 471.399L641.568 451.805ZM658.035 484.474C647.265 488.861 635.433 488.791 624.716 484.278C603.503 475.342 593.05 451.45 600.441 429.991L608.942 433.571C606.433 441.27 606.716 449.523 609.806 457.108C613.266 465.603 619.828 472.242 628.28 475.799C630.051 476.545 631.86 477.138 633.692 477.576C640.596 479.228 647.827 478.693 654.535 475.968C654.546 475.963 654.557 475.96 654.567 475.956C654.574 475.953 654.581 475.949 654.588 475.946C662.16 472.855 668.253 467.299 672.006 460.136L680.504 463.717C675.781 473.146 667.895 480.457 658.035 484.474V484.474Z" fill="#FFFBFB" fill-opacity="0.18"/>
<path d="M648.914 409.723C647.338 410.09 646.358 411.664 646.725 413.24L646.729 413.258C646.989 414.374 647.853 415.186 648.894 415.436C649.324 415.539 649.784 415.546 650.244 415.439C651.82 415.071 652.798 413.487 652.431 411.912C652.065 410.336 650.489 409.355 648.914 409.723V409.723Z" fill="#FFFBFB" fill-opacity="0.18"/>
<path d="M170.008 213.451C169.128 212.227 167.425 211.949 166.201 212.829C164.977 213.709 164.699 215.412 165.579 216.635C169.761 222.45 181.915 225.821 183.288 226.189C184.11 226.405 184.944 226.225 185.584 225.764C186.077 225.41 186.456 224.888 186.627 224.254C187.013 222.798 186.147 221.305 184.691 220.915C180.237 219.729 172.312 216.655 170.008 213.451Z" fill="#FFFBFB" fill-opacity="0.18"/>
<path d="M214.914 177.799C213.69 178.679 213.412 180.382 214.292 181.606C216.589 184.799 216.985 193.297 216.696 197.904C216.601 199.405 217.742 200.701 219.246 200.797C219.899 200.839 220.515 200.646 221.01 200.29C221.65 199.83 222.084 199.097 222.141 198.25C222.229 196.831 222.902 184.236 218.721 178.421C217.841 177.197 216.138 176.919 214.914 177.799Z" fill="#FFFBFB" fill-opacity="0.18"/>
<path d="M190.558 195.314C189.334 196.194 189.056 197.897 189.936 199.12L199.489 212.406C200.37 213.63 202.072 213.908 203.296 213.028C204.52 212.148 204.798 210.445 203.918 209.221L194.364 195.936C193.484 194.712 191.782 194.434 190.558 195.314Z" fill="#FFFBFB" fill-opacity="0.18"/>
<path d="M189.438 142.372C188.096 143.337 186.822 144.523 185.56 145.84C176.595 143.662 166.773 145.234 158.713 151.03C150.653 156.826 146.036 165.637 145.248 174.829C143.597 175.606 142.067 176.436 140.725 177.401C127.295 187.059 124.226 205.842 133.884 219.273C140.502 228.475 151.707 233.11 162.829 231.387L186.849 264.88C188.584 267.297 191.155 268.892 194.089 269.374C197.027 269.856 199.972 269.165 202.387 267.428L255.165 229.475C260.147 225.893 261.286 218.927 257.703 213.945L233.609 180.44C238.744 170.455 237.905 158.386 231.309 149.213C221.651 135.783 202.868 132.714 189.438 142.372ZM253.275 217.13C255.1 219.668 254.52 223.222 251.981 225.047L199.203 263C197.973 263.885 196.47 264.237 194.973 263.992C193.477 263.746 192.165 262.934 191.281 261.7L185.055 253.019L247.033 208.45L253.275 217.13ZM228.073 179.192C227.99 179.323 227.921 179.459 227.865 179.601C227.71 179.974 227.646 180.368 227.665 180.755C227.68 181.141 227.781 181.528 227.967 181.886C228.036 182.023 228.118 182.151 228.21 182.275L243.848 204.021L181.876 248.586L166.288 226.849C166.203 226.727 166.108 226.608 166.005 226.502C165.717 226.201 165.37 225.978 164.996 225.837C164.645 225.705 164.266 225.643 163.876 225.667C163.716 225.677 163.556 225.701 163.399 225.738C153.846 227.786 144.005 224.004 138.312 216.088C130.41 205.099 132.921 189.732 143.91 181.83C144.339 181.521 144.83 181.247 145.3 180.962C145.86 186.467 147.793 191.902 151.249 196.708C152.129 197.931 153.832 198.21 155.056 197.329C156.28 196.449 156.558 194.747 155.678 193.523C146.898 181.314 149.689 164.237 161.897 155.458C174.106 146.679 191.183 149.469 199.962 161.678C200.842 162.902 202.545 163.18 203.768 162.3C204.992 161.42 205.271 159.717 204.39 158.493C200.935 153.687 196.398 150.125 191.357 147.842C191.777 147.487 192.193 147.109 192.623 146.8C203.612 138.898 218.979 141.409 226.881 152.398C232.553 160.286 233.019 170.796 228.073 179.192Z" fill="#FFFBFB" fill-opacity="0.18"/>
<defs>
<filter id="filter0_d" x="0" y="0" width="910" height="680" filterUnits="userSpaceOnUse" color-interpolation-filters="sRGB">
<feFlood flood-opacity="0" result="BackgroundImageFix"/>
<feColorMatrix in="SourceAlpha" type="matrix" values="0 0 0 0 0 0 0 0 0 0 0 0 0 0 0 0 0 0 127 0"/>
<feOffset dx="10" dy="10"/>
<feGaussianBlur stdDeviation="30"/>
<feColorMatrix type="matrix" values="0 0 0 0 0 0 0 0 0 0 0 0 0 0 0 0 0 0 0.25 0"/>
<feBlend mode="normal" in2="BackgroundImageFix" result="effect1_dropShadow"/>
<feBlend mode="normal" in="SourceGraphic" in2="effect1_dropShadow" result="shape"/>
</filter>
</defs>
</svg>
