<svg width="1700" height="800" viewBox="0 0 1700 800" fill="none" xmlns="http://www.w3.org/2000/svg">
<rect width="1700" height="800" fill="#E5E5E5"/>
<g clip-path="url(#clip0)">
<rect width="1700" height="800" fill="#FDFDFD"/>
<g clip-path="url(#clip1)">
<path d="M76.7494 555.735C77.2232 555.895 77.7205 556.009 78.2391 556.073L99.9489 558.749C104.065 559.256 107.812 556.328 108.318 552.215C108.825 548.099 105.9 544.353 101.784 543.846L80.0725 541.173C75.956 540.666 72.2108 543.591 71.705 547.704C71.2616 551.302 73.4406 554.618 76.7494 555.735Z" fill="#BF1A0B" fill-opacity="0.08"/>
<path d="M114.676 596.969C115.15 597.129 115.651 597.245 116.169 597.309L137.88 599.981C141.993 600.487 145.738 597.563 146.249 593.447C146.755 589.334 143.829 585.581 139.714 585.082L118.003 582.409C113.886 581.902 110.141 584.827 109.635 588.94C109.192 592.538 111.371 595.854 114.676 596.969Z" fill="#BF1A0B" fill-opacity="0.08"/>
<path d="M495.749 743.734L500.476 729.729C503.284 721.409 502.994 712.348 499.651 704.223L485.868 670.696C483.902 665.918 483.731 660.596 485.383 655.703L495.709 625.106C502.501 627.056 509.72 623.341 512.004 616.575L528.871 566.599C531.22 559.637 527.469 552.063 520.507 549.713L439.774 522.466C432.816 520.118 425.238 523.868 422.888 530.83L406.021 580.806C403.849 587.243 406.9 594.192 412.869 597.065L402.518 627.736C400.866 632.629 397.502 636.758 393.047 639.369L363.185 656.851C363.151 656.708 363.123 656.558 363.085 656.413L358.543 639.222C363.537 638.62 368.003 635.246 369.717 630.168L378.647 603.708C381.022 596.672 377.229 589.014 370.193 586.64L272.949 553.82C269.018 552.493 264.761 554.602 263.434 558.533C262.109 562.46 264.218 566.717 268.148 568.043L363.927 600.368L355.983 623.904L198.074 570.61L206.017 547.074L235.271 556.947C239.198 558.273 243.455 556.164 244.781 552.237C246.107 548.306 243.999 544.049 240.072 542.724L209.356 532.357C202.316 529.981 194.658 533.775 192.284 540.811L183.354 567.27C181.64 572.348 183.148 577.738 186.759 581.245L172.725 592.167C172.502 592.339 172.297 592.529 172.08 592.708C173.961 581.712 174.917 572.075 175.353 564.248C176.731 539.606 163.241 517.008 140.981 506.679C137.284 504.966 133.686 503.619 130.423 502.572L147.597 486.649C150.639 483.83 150.814 479.082 147.998 476.041C145.178 472.999 140.432 472.82 137.386 475.638L124.983 487.139L128.434 459.115C128.941 454.999 126.018 451.25 121.9 450.746C117.784 450.239 114.039 453.164 113.533 457.277L110.08 485.304L100.835 471.14C98.5693 467.666 93.9197 466.686 90.445 468.956C86.9716 471.222 85.9956 475.873 88.2616 479.347L101.061 498.958C97.6421 499.181 93.8272 499.612 89.8245 500.38C65.7256 505.003 47.1526 523.656 42.5135 547.895C40.5114 558.371 38.6124 572.329 38.1203 588.934L31.7766 586.793C25.2404 584.587 18.1268 588.11 15.9208 594.647L3.5007 631.447C1.29473 637.983 4.81826 645.097 11.3545 647.303L28.3723 653.046L23.2353 686.236C22.5986 690.334 25.4031 694.166 29.5043 694.804C33.6031 695.437 37.4368 692.629 38.0734 688.531L42.8105 657.919L441.305 792.411L368.143 927.161C359.746 942.624 341.55 949.762 324.877 944.135L43.4827 849.164C26.809 843.537 16.6608 826.833 19.3546 809.445L32.7428 722.954C33.3795 718.857 30.5725 715.02 26.4737 714.387C22.375 713.754 18.5413 716.562 17.9046 720.659L4.51771 807.146C0.70609 831.767 15.0751 855.424 38.681 863.391L320.079 958.363C343.685 966.33 369.451 956.218 381.338 934.323L455.743 797.284L472.761 803.027C479.297 805.233 486.411 801.71 488.617 795.174L501.037 758.373C502.932 752.759 500.59 746.724 495.749 743.734V743.734ZM436.575 537.234L514.103 563.4L498.316 610.175L420.788 584.009L436.575 537.234ZM359.877 682.277C361.528 677.384 364.889 673.253 369.348 670.644L400.633 652.327C408.212 647.889 413.936 640.862 416.745 632.538L427.062 601.97L481.472 620.333L471.155 650.901C468.347 659.221 468.642 668.279 471.98 676.406L485.768 709.935C487.73 714.712 487.904 720.035 486.252 724.928L481.632 738.619L355.256 695.967L359.877 682.277ZM176.434 611.777C177.474 608.694 179.382 606.011 181.947 604.015L202.559 587.971L341.895 634.997L348.569 660.25C349.401 663.392 349.292 666.682 348.253 669.762L341.03 691.162L322.081 684.766L327.634 668.311C329.84 661.775 326.317 654.661 319.78 652.455L209.572 615.26C203.035 613.054 195.922 616.577 193.716 623.114L188.162 639.569L169.212 633.173L176.434 611.777ZM312.61 665.883L307.856 679.97L202.384 644.373L207.139 630.286L312.61 665.883ZM92.6512 515.129C104.17 512.919 114.021 514.05 114.092 514.058C114.167 514.067 119.73 514.798 127.002 517.253C129.416 518.067 132.012 519.071 134.661 520.299C151.307 528.024 161.395 544.943 160.361 563.41C159.666 575.828 157.156 598.852 148.455 626.172L53.073 593.98C53.3183 574.979 55.5132 559.851 57.2632 550.721C60.7394 532.554 74.6304 518.587 92.6512 515.129ZM475.19 788L18.5286 633.876L29.3473 601.821L155.197 644.295C155.791 644.722 156.461 645.072 157.19 645.318L341.499 707.522C342.008 707.847 342.56 708.128 343.16 708.33L483.763 755.784C484.481 756.026 485.21 756.148 485.932 756.173L475.19 788Z" fill="#BF1A0B" fill-opacity="0.08"/>
<path d="M74.5693 825.499C75.0134 825.649 75.475 825.76 75.9565 825.823C80.0617 826.388 83.8499 823.519 84.4162 819.41L98.4688 717.453C99.0314 713.343 96.1588 709.553 92.0561 708.993C87.9485 708.423 84.159 711.296 83.5939 715.401L69.5438 817.363C69.041 820.991 71.2234 824.37 74.5693 825.499Z" fill="#BF1A0B" fill-opacity="0.08"/>
<path d="M153.397 852.1C153.594 852.166 153.796 852.226 154.005 852.28C158.027 853.274 162.097 850.814 163.092 846.792L187.423 748.303C188.419 744.278 185.968 740.202 181.935 739.216C177.909 738.22 173.843 740.678 172.848 744.704L148.513 843.191C147.571 847.008 149.737 850.864 153.397 852.1Z" fill="#BF1A0B" fill-opacity="0.08"/>
<path d="M314.492 906.473C317.838 907.602 321.618 906.235 323.42 903.047L374.03 813.423C376.068 809.815 374.794 805.234 371.181 803.198C367.575 801.156 362.992 802.433 360.954 806.041L310.349 895.663C308.309 899.274 309.584 903.852 313.192 905.89C313.614 906.131 314.048 906.323 314.492 906.473V906.473Z" fill="#BF1A0B" fill-opacity="0.08"/>
<path d="M235.666 879.865C239.327 881.101 243.386 879.346 244.951 875.735L285.275 782.644C286.926 778.839 285.177 774.419 281.371 772.772C277.569 771.113 273.145 772.873 271.498 776.679L231.171 869.769C229.525 873.571 231.273 877.991 235.074 879.641C235.273 879.724 235.47 879.799 235.666 879.865Z" fill="#BF1A0B" fill-opacity="0.08"/>
</g>
</g>
<defs>
<clipPath id="clip0">
<rect width="1700" height="800" fill="white"/>
</clipPath>
<clipPath id="clip1">
<rect width="512" height="512" fill="white" transform="translate(90.7266 373) rotate(18.6495)"/>
</clipPath>
</defs>
</svg>
