<svg width="1440" height="1024" viewBox="0 0 1440 1024" fill="none" xmlns="http://www.w3.org/2000/svg">
<g clip-path="url(#clip0)">
<path d="M1440 0H0V1024H1440V0Z" fill="#BF1A0B"/>
<path d="M1019.78 85H-20.782C-162.84 85 -278 193.347 -278 327V1011C-278 1144.65 -162.84 1253 -20.782 1253H1019.78C1161.84 1253 1277 1144.65 1277 1011V327C1277 193.347 1161.84 85 1019.78 85Z" fill="#F5F5F5"/>
<path d="M552.837 66.0646C550.499 43.9868 538.79 26.0927 520.47 15.8733C516.044 -0.385424 487.181 -16.3625 485.932 -17.0461C485.121 -17.4964 484.109 -17.4917 483.293 -17.0233C482.477 -16.5609 481.96 -15.7066 481.927 -14.7685C481.603 -5.82341 480.9 4.20812 480.175 8.12503C473.622 8.29028 467.692 8.9095 463.654 9.81171C461.537 -3.76673 447.921 -9.74474 447.296 -10.0119C445.92 -10.6003 444.33 -9.96251 443.741 -8.58595C437.574 5.8432 439.507 15.2356 441.489 19.9054C436.744 21.6997 428.619 26.7925 422.451 41.2217C421.863 42.5982 422.501 44.1883 423.877 44.7767C424.502 45.0438 438.233 50.7544 449.51 42.9017C452.351 47.6079 457.849 54.3736 464.274 60.7908C461.377 62.8292 458.618 66.8619 455.911 73.1958C455.322 74.5724 455.96 76.1624 457.337 76.7508C458.077 77.0673 475.075 84.1593 487.738 77.8711C509.364 86.6249 532.636 83.2857 551.8 68.4915C552.543 67.9175 552.936 66.9983 552.837 66.0646ZM487.151 -10.0733C495.001 -5.28521 507.465 3.56692 512.949 12.2195C505.671 9.43947 495.381 8.24189 485.649 8.09895C486.418 3.25009 486.895 -4.63462 487.151 -10.0733ZM462.076 72.7159C465.368 65.9303 467.724 64.8431 468.327 64.6722C472.451 68.45 476.79 71.9054 480.964 74.4932C473.937 75.9852 466.067 74.0203 462.076 72.7159ZM468.077 64.4571L468.08 64.4508C468.086 64.456 468.092 64.4609 468.098 64.4662C468.085 64.4584 468.091 64.4656 468.077 64.4571ZM488.627 72.4533C474.074 66.2327 455.387 44.1134 452.907 37.7206C452.642 37.035 452.111 36.4945 451.447 36.2107C451.296 36.1462 451.137 36.0955 450.975 36.0576C450.095 35.8602 449.172 36.1156 448.518 36.7364C441.826 43.0943 433.012 41.8439 428.656 40.6694C436.105 25.3957 445.274 24.3821 445.739 24.3423C446.739 24.2719 447.607 23.6392 448.014 22.7229C448.424 21.7965 448.272 20.7049 447.635 19.9148C447.377 19.5949 441.718 12.2773 447.623 -3.70502C451.472 -1.34959 458.482 4.20099 458.512 13.3552C458.515 14.2566 458.969 15.1006 459.719 15.5995C460.476 16.104 461.424 16.1931 462.257 15.8472C468.591 13.2218 497.493 11.4441 512.046 17.6647C531.709 26.0694 544.482 43.3132 547.275 65.1219C529.581 78.1739 508.29 80.8579 488.627 72.4533Z" fill="#FFFBFB" fill-opacity="0.18"/>
<path d="M507.808 48.2523C512.706 36.7927 520.228 31.7063 520.304 31.6556C521.549 30.8298 521.891 29.1529 521.073 27.9055C520.252 26.663 518.578 26.3128 517.333 27.1267C516.97 27.3629 508.408 33.0682 502.827 46.1234C497.247 59.1785 499.04 69.3102 499.12 69.7356C499.291 70.6602 499.916 71.3873 500.72 71.7313C501.195 71.934 501.732 72.0027 502.278 71.9023C503.75 71.6282 504.719 70.2161 504.445 68.744C504.428 68.6566 502.865 59.8167 507.808 48.2523Z" fill="#FFFBFB" fill-opacity="0.18"/>
<path d="M511.111 23.6477C510.288 22.4042 508.619 22.0561 507.371 22.8689C507.008 23.1049 498.446 28.8105 492.866 41.8654C489.885 48.8381 489.046 54.9596 488.869 58.8675C488.816 60.0271 489.501 61.0504 490.51 61.4818C490.799 61.6055 491.118 61.6811 491.451 61.6969C492.946 61.7663 494.211 60.6102 494.28 59.1153C494.439 55.6542 495.185 50.2202 497.847 43.9944C502.745 32.5348 510.266 27.4485 510.343 27.3977C511.587 26.5721 511.93 24.8951 511.111 23.6477Z" fill="#FFFBFB" fill-opacity="0.18"/>
<path d="M523.815 52.1484C526.565 53.3242 529.749 52.0474 530.924 49.2966C532.1 46.5459 530.823 43.3628 528.073 42.187C525.322 41.0112 522.139 42.288 520.963 45.0388C519.787 47.7895 521.064 50.9726 523.815 52.1484Z" fill="#FFFBFB" fill-opacity="0.18"/>
<path d="M1372.64 716.789C1372.08 715.375 1370.42 714.649 1368.91 715.167C1367.4 715.686 1366.62 717.251 1367.18 718.665C1369.8 725.388 1381.31 731.901 1382.62 732.624C1383.39 733.053 1384.31 733.104 1385.09 732.833C1385.71 732.624 1386.24 732.223 1386.6 731.659C1387.41 730.361 1386.95 728.691 1385.57 727.923C1381.34 725.584 1374.08 720.494 1372.64 716.789Z" fill="#FFFBFB" fill-opacity="0.18"/>
<path d="M1428.25 694.17C1426.68 694.696 1425.88 696.285 1426.45 697.723C1427.95 701.474 1425.84 709.892 1424.17 714.319C1423.62 715.762 1424.45 717.34 1426.02 717.845C1426.71 718.064 1427.42 718.044 1428.06 717.83C1428.87 717.555 1429.55 716.958 1429.87 716.144C1430.39 714.781 1434.85 702.646 1432.12 695.817C1431.55 694.38 1429.82 693.644 1428.25 694.17Z" fill="#FFFBFB" fill-opacity="0.18"/>
<path d="M1397.94 704.169C1396.41 704.692 1395.62 706.27 1396.18 707.698L1402.28 723.195C1402.83 724.622 1404.53 725.354 1406.06 724.831C1407.59 724.308 1408.38 722.73 1407.82 721.302L1401.72 705.805C1401.16 704.378 1399.47 703.646 1397.94 704.169Z" fill="#FFFBFB" fill-opacity="0.18"/>
<path d="M1412.21 652.922C1410.58 653.493 1408.94 654.295 1407.29 655.229C1398.8 650.704 1388.37 649.572 1378.53 652.999C1368.69 656.427 1361.5 663.7 1358.09 672.372C1356.19 672.678 1354.4 673.068 1352.76 673.639C1336.38 679.351 1327.93 696.681 1333.93 712.27C1338.05 722.953 1348.12 730.457 1359.91 731.794L1374.82 770.655C1375.9 773.459 1378.05 775.696 1380.91 776.954C1383.75 778.213 1386.94 778.34 1389.89 777.313L1454.3 754.868C1460.37 752.749 1463.51 746.321 1461.29 740.538L1446.3 701.646C1454.36 693.379 1456.92 681.485 1452.83 670.837C1446.82 655.248 1428.6 647.211 1412.21 652.922ZM1455.88 742.422C1457.01 745.369 1455.41 748.647 1452.31 749.727L1387.91 772.172C1386.41 772.696 1384.78 772.631 1383.33 771.99C1381.88 771.347 1380.77 770.209 1380.22 768.777L1376.37 758.704L1452 732.346L1455.88 742.422ZM1441.03 698.944C1440.91 699.05 1440.8 699.162 1440.71 699.284C1440.44 699.603 1440.26 699.967 1440.17 700.346C1440.08 700.723 1440.07 701.124 1440.16 701.52C1440.19 701.672 1440.23 701.818 1440.29 701.963L1450.02 727.206L1374.39 753.561L1364.72 728.34C1364.67 728.199 1364.6 728.059 1364.52 727.929C1364.32 727.559 1364.03 727.25 1363.69 727.013C1363.37 726.791 1363 726.629 1362.6 726.547C1362.44 726.514 1362.26 726.493 1362.09 726.486C1351.8 725.888 1342.88 719.576 1339.33 710.387C1334.42 697.631 1341.34 683.453 1354.75 678.78C1355.27 678.597 1355.85 678.464 1356.4 678.316C1355.42 683.788 1355.84 689.564 1357.98 695.143C1358.53 696.564 1360.18 697.292 1361.68 696.772C1363.17 696.251 1363.93 694.681 1363.39 693.259C1357.93 679.088 1365.61 663.332 1380.51 658.14C1395.41 652.948 1411.97 660.255 1417.43 674.426C1417.97 675.847 1419.63 676.576 1421.12 676.055C1422.62 675.534 1423.38 673.964 1422.84 672.543C1420.68 666.964 1417.09 662.296 1412.61 658.729C1413.14 658.499 1413.67 658.246 1414.19 658.063C1427.61 653.39 1442.5 659.965 1447.42 672.721C1450.95 681.878 1448.44 692.163 1441.03 698.944Z" fill="#FFFBFB" fill-opacity="0.18"/>
</g>
<defs>
<clipPath id="clip0">
<rect width="1440" height="1024" fill="white"/>
</clipPath>
</defs>
</svg>
