<svg width="1440" height="1024" viewBox="0 0 1440 1024" fill="none" xmlns="http://www.w3.org/2000/svg">
<g clip-path="url(#clip0)">
<path d="M1440 0H0V1024H1440V0Z" fill="#639E2E"/>
<path d="M1716 91H470C299.896 91 162 201.11 162 336.937V1032.06C162 1167.89 299.896 1278 470 1278H1716C1886.1 1278 2024 1167.89 2024 1032.06V336.937C2024 201.11 1886.1 91 1716 91Z" fill="#F5F5F5"/>
<path d="M199.998 710.546L191.64 715.677L167.781 676.805C171.346 673.201 171.755 666.758 168.454 661.381C164.688 655.246 157.502 652.786 152.433 655.897L142.964 661.709C141.93 662.344 141.714 663.874 142.482 665.125C143.251 666.377 144.711 666.877 145.746 666.242L155.215 660.43C158.219 658.587 162.477 660.044 164.708 663.679C166.939 667.314 166.311 671.771 163.308 673.614L145.926 684.283C141.098 687.247 140.088 694.413 143.675 700.257L154.002 717.082C156.091 720.486 155.503 724.659 152.691 726.385C149.878 728.111 145.892 726.746 143.802 723.343L133.475 706.519C129.888 700.674 123.041 698.331 118.211 701.295C113.383 704.259 112.373 711.425 115.96 717.269L120.116 724.04C122.008 727.122 121.475 730.903 118.928 732.466C116.381 734.03 112.77 732.794 110.877 729.711L106.722 722.94C103.134 717.096 96.2876 714.753 91.4588 717.716L63.3409 734.974C60.3379 736.818 56.0794 735.361 53.8484 731.726C51.6169 728.092 52.2455 723.634 55.2485 721.79L137.127 671.533C138.161 670.899 138.377 669.369 137.608 668.118C136.84 666.865 135.378 666.366 134.344 667L124.793 672.863C124.794 672.858 124.795 672.854 124.795 672.849C126.266 662.419 121.719 650.477 112.632 640.906C111.103 639.296 109.023 638.584 107.203 639.046C96.3748 641.797 89.0322 649.671 87.5617 660.107C87.1487 663.041 87.1941 666.061 87.6707 669.102C83.0445 667.874 78.4246 668.434 74.6422 670.755C73.6474 671.365 72.7482 672.08 71.938 672.875C68.4097 669.83 63.6989 666.986 58.0855 666.483C56.8015 666.369 55.8525 667.41 55.9651 668.808C56.0781 670.208 57.2103 671.434 58.4933 671.549C62.7225 671.927 66.3807 674.097 69.1991 676.477C65.6849 682.748 65.9816 691.581 70.6368 699.166C71.6951 700.889 72.9214 702.458 74.2964 703.858L52.4661 717.257C47.3977 720.369 46.3375 727.891 50.1027 734.025C53.4036 739.402 59.3336 741.955 64.1617 740.407L88.0211 779.279L79.6629 784.408C77.5941 785.679 77.1619 788.749 78.6983 791.252L82.4514 797.367C85.7844 802.797 92.1463 804.974 96.6325 802.22L98.8171 800.88L102.619 807.073C104.491 810.123 108.065 811.346 110.586 809.799L208.64 749.613C211.16 748.066 211.687 744.325 209.815 741.276L206.014 735.082L208.198 733.74C212.684 730.987 213.623 724.329 210.29 718.899L206.537 712.785C205 710.28 202.067 709.276 199.998 710.546ZM92.1775 661.686C93.4237 652.846 99.5428 646.403 108.964 644.009C109.205 643.947 109.493 644.046 109.695 644.259C117.603 652.589 121.425 662.434 120.179 671.269C119.919 673.115 119.437 674.885 118.747 676.529C118.738 676.548 118.733 676.568 118.726 676.586L106.078 684.35L107.111 677.023C108.73 676.59 110.252 675.942 111.662 675.076C112.311 674.677 112.938 674.233 113.539 673.744C114.483 672.976 114.537 671.401 113.661 670.227C112.784 669.052 111.307 668.722 110.363 669.49C109.609 670.103 108.803 670.628 107.952 671.061L108.468 667.4C110.087 666.967 111.609 666.318 113.019 665.453C113.668 665.054 114.295 664.61 114.896 664.12C115.84 663.352 115.894 661.778 115.018 660.602C114.141 659.428 112.664 659.097 111.721 659.866C110.966 660.48 110.159 661.004 109.308 661.437L109.965 656.775C110.153 655.442 109.273 654.006 107.998 653.571C106.724 653.134 105.538 653.861 105.35 655.196L104.693 659.858C104.037 658.908 103.446 657.907 102.926 656.856C102.274 655.542 100.846 654.878 99.7336 655.372C98.6233 655.865 98.2475 657.331 98.8979 658.645C100.21 661.294 101.876 663.697 103.853 665.815L103.337 669.481C102.68 668.531 102.089 667.53 101.569 666.479C100.918 665.165 99.4888 664.501 98.3766 664.995C97.2658 665.49 96.8909 666.955 97.542 668.268C98.8535 670.917 100.519 673.32 102.497 675.44L100.904 686.737C94.2016 678.85 91.0321 669.814 92.1775 661.686ZM74.3825 696.867C70.9947 691.348 70.6458 684.96 72.9681 680.244C74.4637 681.996 75.3009 683.325 75.3277 683.367C76.0966 684.616 77.5554 685.113 78.5885 684.479C79.6225 683.844 79.8385 682.315 79.0696 681.063C78.9446 680.86 77.7615 678.964 75.6831 676.599C76.2146 676.113 76.7946 675.673 77.4233 675.287C80.7532 673.244 84.9378 672.999 88.9959 674.582C90.6753 679.751 93.5609 684.864 97.5344 689.594L78.2283 701.444C76.7436 700.145 75.4515 698.61 74.3825 696.867ZM148.709 688.816L164.171 679.325L169.718 688.361L149.243 700.929L147.421 697.959C145.368 694.614 145.946 690.512 148.709 688.816ZM120.994 705.827C123.758 704.131 127.676 705.473 129.73 708.817L131.552 711.787L121.528 717.94L119.706 714.97C117.652 711.625 118.231 707.523 120.994 705.827ZM102.976 725.239L104.8 728.209L73.5885 747.366L68.0429 738.33L94.2412 722.249C97.0045 720.553 100.924 721.894 102.976 725.239ZM206.545 721.197C208.343 724.128 207.837 727.721 205.416 729.208L185.902 741.185C184.868 741.82 184.653 743.349 185.421 744.601C186.19 745.853 187.65 746.353 188.684 745.718L202.268 737.381L206.069 743.575C206.408 744.125 206.312 744.8 205.857 745.08L107.803 805.267C107.348 805.546 106.702 805.325 106.364 804.774L102.563 798.581L180.066 751.009C181.1 750.374 181.315 748.844 180.547 747.593C179.778 746.341 178.317 745.841 177.283 746.476L93.85 797.687C91.4291 799.173 87.9949 797.999 86.1971 795.068L82.4456 788.942L129.814 759.867C130.848 759.231 131.064 757.702 130.295 756.45C129.527 755.199 128.066 754.699 127.032 755.333L91.7658 776.98L76.3709 751.899L107.606 732.727C111.134 737.777 117.302 739.705 121.711 736.999C126.12 734.293 127.192 727.921 124.287 722.488L134.335 716.32L140.057 725.642C143.68 731.545 150.596 733.912 155.473 730.918C160.351 727.924 161.371 720.686 157.748 714.783L152.026 705.462L172.5 692.894L187.895 717.975L135.651 750.043C134.617 750.678 134.402 752.207 135.17 753.459C135.938 754.71 137.399 755.211 138.433 754.576L202.791 715.084L206.545 721.197Z" fill="#FFFBFB" fill-opacity="0.18"/>
<path d="M126.905 892.207L126.875 892.214C125.694 892.492 125.01 893.877 125.346 895.306C125.683 896.736 126.913 897.669 128.094 897.391L128.124 897.384C129.305 897.106 129.99 895.722 129.653 894.292C129.317 892.863 128.086 891.929 126.905 892.207Z" fill="#639E2E"/>
<path d="M134.707 896.898L134.677 896.905C133.496 897.184 132.811 898.568 133.148 899.998C133.484 901.427 134.715 902.361 135.896 902.083L135.926 902.076C137.107 901.797 137.791 900.413 137.455 898.983C137.118 897.554 135.888 896.62 134.707 896.898Z" fill="#639E2E"/>
<path d="M1326 105.042C1326 101.516 1324.62 98.198 1322.12 95.698L1303.2 76.775C1303.18 76.752 1303.16 76.727 1303.14 76.704C1303.11 76.681 1303.09 76.662 1303.07 76.64L1296.75 70.32C1295.83 69.405 1294.35 69.405 1293.43 70.32C1292.52 71.235 1292.52 72.719 1293.43 73.635L1298.16 78.365L1290.33 86.192C1289.93 86.597 1289.69 87.136 1289.65 87.708C1289.4 91.832 1287.64 95.735 1284.7 98.692C1281.73 101.643 1277.83 103.405 1273.71 103.653C1273.14 103.688 1272.6 103.931 1272.19 104.336L1264.36 112.162L1241.65 89.45L1249.48 81.627C1249.88 81.222 1250.12 80.682 1250.16 80.11C1250.41 75.979 1252.17 72.077 1255.12 69.124C1258.08 66.17 1261.98 64.407 1266.11 64.159C1266.68 64.124 1267.22 63.881 1267.63 63.476L1275.45 55.653L1278.42 58.62C1278.87 59.077 1279.47 59.306 1280.07 59.306C1280.67 59.306 1281.27 59.077 1281.73 58.62C1282.65 57.705 1282.65 56.221 1281.73 55.305L1277.11 50.682V50.681C1277.11 50.68 1277.11 50.68 1277.11 50.68L1271.44 45.0137C1262.74 36.317 1254.49 36.822 1248.46 37.1909C1244.88 37.4101 1242.8 37.4745 1241.58 36.2574L1238.58 33.2577L1238.77 33.0746C1239.21 32.6349 1239.45 32.0384 1239.45 31.4169C1239.45 30.7951 1239.21 30.1988 1238.77 29.7594L1231.48 22.4853C1229.88 20.8827 1227.74 20 1225.46 20C1223.18 20 1221.04 20.8827 1219.44 22.4853L1208.49 33.4407C1206.88 35.0434 1206 37.182 1206 39.4627C1206 41.7434 1206.88 43.8821 1208.48 45.4841L1215.76 52.766C1216.2 53.206 1216.8 53.453 1217.42 53.453C1218.04 53.453 1218.64 53.206 1219.07 52.767L1219.26 52.584L1222.26 55.583C1223.47 56.8 1223.41 58.883 1223.19 62.459C1222.82 68.488 1222.32 76.743 1231.01 85.44L1236.68 91.106V91.107C1236.68 91.108 1236.68 91.108 1236.68 91.108L1262.64 117.07C1262.66 117.092 1262.68 117.115 1262.7 117.137C1262.73 117.159 1262.75 117.177 1262.77 117.197L1281.7 136.124C1284.2 138.624 1287.52 140 1291.04 140C1297.59 140 1303.04 135.207 1304.08 128.944C1309.63 128.025 1314.02 123.63 1314.94 118.075C1321.21 117.04 1326 111.591 1326 105.042ZM1211.8 42.1705C1211.08 41.453 1210.69 40.4916 1210.69 39.4627C1210.69 38.4338 1211.08 37.4724 1211.8 36.7552L1222.76 25.7998C1223.47 25.0827 1224.43 24.6875 1225.46 24.6875C1226.49 24.6875 1227.45 25.0827 1228.17 25.8005L1233.79 31.418L1217.42 47.7938L1211.8 42.1705ZM1227.87 62.746C1228.11 58.782 1228.34 55.038 1225.57 52.269L1222.57 49.269L1235.27 36.5724L1238.27 39.5722C1241.04 42.3418 1244.78 42.1123 1248.75 41.87C1254.45 41.5208 1260.92 41.1247 1268.13 48.3287L1272.14 52.339L1264.92 59.553C1259.98 60.061 1255.36 62.261 1251.81 65.809C1248.26 69.357 1246.06 73.983 1245.55 78.92L1238.34 86.135L1234.33 82.126C1227.12 74.922 1227.52 68.453 1227.87 62.746ZM1314.87 113.309C1314.36 110.776 1313.13 108.444 1311.26 106.57C1310.34 105.654 1308.86 105.651 1307.94 106.565C1307.03 107.479 1307.02 108.963 1307.94 109.88C1309.55 111.496 1310.44 113.638 1310.44 115.912C1310.44 120.613 1306.61 124.437 1301.91 124.437C1299.64 124.437 1297.5 123.55 1295.88 121.939C1294.96 121.025 1293.48 121.027 1292.56 121.944C1291.65 122.861 1291.65 124.345 1292.57 125.259C1294.44 127.126 1296.78 128.365 1299.31 128.869C1298.38 132.567 1295.02 135.312 1291.04 135.312C1288.77 135.312 1286.63 134.424 1285.01 132.81L1267.68 115.476L1274.9 108.258C1279.82 107.751 1284.45 105.554 1288.01 102.006C1291.55 98.45 1293.75 93.825 1294.26 88.897L1301.48 81.679L1318.81 99.013C1320.42 100.627 1321.31 102.768 1321.31 105.042C1321.31 109.024 1318.57 112.375 1314.87 113.309Z" fill="#FFFBFB" fill-opacity="0.18"/>
<path d="M1274.84 69.888C1273.93 68.973 1272.44 68.973 1271.53 69.888L1256.15 85.261C1255.24 86.177 1255.24 87.661 1256.15 88.576C1256.61 89.034 1257.21 89.263 1257.81 89.263C1258.41 89.263 1259.01 89.034 1259.47 88.576L1274.84 73.203C1275.76 72.287 1275.76 70.803 1274.84 69.888Z" fill="#FFFBFB" fill-opacity="0.18"/>
<path d="M1279.5 77.86L1264.13 93.2339C1263.21 94.1489 1263.21 95.633 1264.13 96.549C1264.58 97.006 1265.18 97.235 1265.78 97.235C1266.38 97.235 1266.98 97.006 1267.44 96.549L1282.81 81.175C1283.73 80.26 1283.73 78.776 1282.81 77.86C1281.9 76.945 1280.41 76.945 1279.5 77.86Z" fill="#FFFBFB" fill-opacity="0.18"/>
<path d="M121.236 217.608L107.408 211.782C107.394 211.776 107.381 211.768 107.368 211.762C107.354 211.757 107.34 211.753 107.326 211.747L85.253 202.447C87.2089 196.594 88.4331 190.385 88.8127 184.324C88.9141 182.71 87.6845 181.315 86.0723 181.217C84.4575 181.116 83.0661 182.343 82.9654 183.958C82.6259 189.371 81.5499 194.916 79.8353 200.164L35.5938 181.533C34.8776 181.23 34.0709 181.226 33.3512 181.52C32.6316 181.813 32.0582 182.38 31.7567 183.096C24.7449 199.756 27.5971 218.142 37.6434 231.716C17.0494 228.331 0.514674 205.481 -2.26876 184.257C-5.32598 160.966 4.70498 138.635 22.1249 129.951C23.134 129.448 23.7651 128.41 23.7472 127.283C23.6739 122.625 27.3139 118.628 32.216 117.986C37.1212 117.341 41.671 120.264 42.7992 124.782C43.0722 125.877 43.96 126.72 45.0553 126.943C59.8387 129.968 72.9096 142.287 79.1829 159.113C79.7482 160.629 81.4353 161.4 82.9515 160.835C84.4677 160.269 85.2383 158.582 84.6732 157.066C83.1663 153.024 81.2852 149.18 79.0818 145.607C87.7691 142.239 97.4095 135.041 100.84 126.942C101.294 125.868 101.069 124.627 100.266 123.781C93.3194 116.471 78.6827 113.023 68.923 114.175C67.0004 106.481 61.8645 97.4644 55.3652 93.7192C54.3544 93.137 53.096 93.2094 52.1591 93.9031C46.4739 98.1127 42.612 106.554 41.2797 114.036C38.4115 112.432 34.9877 111.713 31.4539 112.177C24.2478 113.121 18.7438 118.7 17.9783 125.512C9.17728 130.366 1.80949 138.539 -2.88621 148.705C-7.9595 159.687 -9.75447 172.245 -8.0775 185.019C-6.41125 197.726 -0.0577612 211.264 8.91886 221.235C16.2798 229.411 24.8986 234.781 33.9051 236.936C36.9638 237.668 40.0681 238.028 43.1819 238.002C47.4042 242.042 52.4143 245.395 58.1112 247.795C60.6565 248.867 63.2556 249.717 65.8895 250.348C75.8365 252.728 86.2543 251.954 95.9158 248.017C108.134 243.04 117.682 233.603 122.799 221.445C123.426 219.954 122.726 218.237 121.236 217.608ZM68.3827 120.172C75.7928 118.827 88.1259 121.292 94.5322 126.456C90.9454 132.554 82.6409 138.242 75.654 140.618C73.6863 138.033 71.5385 135.633 69.2251 133.465C66.1125 130.547 62.7445 128.075 59.206 126.091C60.712 123.886 63.532 121.05 68.3827 120.172ZM54.1148 99.9596C58.3156 103.374 61.839 109.985 63.241 115.599C59.3371 117.194 56.0581 119.958 53.8686 123.523C51.9163 122.732 49.9288 122.081 47.9162 121.583C47.5681 120.693 47.1343 119.851 46.6307 119.061C46.7629 112.974 49.7768 104.404 54.1148 99.9596ZM90.6832 227.402L82.6644 207.714L102.254 215.969C99.5882 220.848 95.594 224.795 90.6832 227.402ZM50.0334 193.971L69.6272 202.222L49.9341 210.244C48.3668 204.907 48.4012 199.289 50.0334 193.971ZM71.8362 207.649L63.5822 227.243C58.7001 224.578 54.7515 220.584 52.1438 215.671L71.8362 207.649ZM77.2368 209.922L85.2571 229.613C79.919 231.181 74.3016 231.147 68.9822 229.516L77.2368 209.922ZM93.7039 242.591C82.9339 246.979 71.1024 246.908 60.3847 242.395C39.1719 233.459 28.719 209.567 36.1098 188.108L44.6112 191.688C42.1016 199.387 42.3854 207.64 45.4749 215.225C48.9353 223.721 55.4969 230.359 63.9491 233.916C65.7202 234.662 67.5287 235.255 69.3611 235.693C76.2655 237.345 83.496 236.81 90.2039 234.085C90.2146 234.08 90.2256 234.077 90.2363 234.073C90.2433 234.07 90.2497 234.066 90.257 234.063C97.8286 230.973 103.923 225.416 107.676 218.253L116.173 221.834C111.45 231.263 103.564 238.574 93.7039 242.591Z" fill="#FFFBFB" fill-opacity="0.18"/>
<path d="M84.583 167.84C83.0071 168.207 82.0272 169.781 82.3939 171.357L82.398 171.375C82.6578 172.491 83.5217 173.304 84.5634 173.553C84.9934 173.656 85.4535 173.663 85.9135 173.556C87.4891 173.189 88.467 171.605 88.1003 170.029C87.7336 168.453 86.1578 167.472 84.583 167.84Z" fill="#FFFBFB" fill-opacity="0.18"/>
</g>
<defs>
<clipPath id="clip0">
<rect width="1440" height="1024" fill="white"/>
</clipPath>
</defs>
</svg>
