<svg width="1440" height="1024" viewBox="0 0 1440 1024" fill="none" xmlns="http://www.w3.org/2000/svg">
<g clip-path="url(#clip0)">
<path d="M1440 0H0V1024H1440V0Z" fill="#BF1A0B"/>
<path d="M1319.18 595.514C1327.79 593.468 1338.63 593.496 1351.39 595.598C1375.95 599.641 1400.97 610.131 1410.59 614.453C1435.51 625.653 1447 654.335 1436.19 678.392L1427.88 696.872C1417.07 720.932 1388 731.392 1363.08 720.192C1351.58 715.032 1344.51 707.682 1337.03 699.892C1329.29 691.842 1321.29 683.517 1307.54 677.342C1289.44 669.207 1281.1 648.373 1288.95 630.9L1297.26 612.415C1301.16 603.732 1308.53 598.045 1319.18 595.514ZM1301.18 641.752C1299.66 642.35 1297.91 641.621 1297.26 640.125C1296.16 637.602 1295.37 634.986 1294.89 632.337L1294.43 633.361C1287.89 647.92 1294.84 665.277 1309.92 672.054C1324.76 678.722 1333.18 687.485 1341.33 695.962C1348.39 703.302 1355.06 710.232 1365.45 714.902C1386.5 724.362 1410.9 716.242 1421.21 696.842C1407.45 706.892 1388.45 709.372 1371.38 701.712C1359.89 696.542 1352.82 689.192 1345.34 681.407C1337.6 673.356 1329.59 665.032 1315.85 658.857C1314.83 658.398 1313.82 657.888 1312.84 657.341C1311.4 656.528 1310.87 654.742 1311.67 653.351C1312.46 651.961 1314.28 651.494 1315.72 652.306C1316.53 652.761 1317.37 653.186 1318.22 653.569C1333.06 660.237 1341.49 669 1349.64 677.474C1356.7 684.816 1363.36 691.752 1373.76 696.422C1395.66 706.262 1421.21 697.072 1430.71 675.93C1440.21 654.79 1430.12 629.584 1408.21 619.742C1398.82 615.519 1374.39 605.275 1350.55 601.35C1324.76 597.103 1308.68 601.654 1302.73 614.876C1299.49 622.094 1299.49 630.508 1302.74 637.962C1303.39 639.458 1302.69 641.155 1301.18 641.752Z" fill="#FFFBFB" fill-opacity="0.18"/>
<path d="M1302.67 644.452C1303.91 643.421 1305.8 643.587 1306.89 644.824C1306.9 644.841 1306.92 644.865 1306.94 644.883C1308 646.144 1307.83 647.979 1306.57 648.981C1305.67 649.692 1304.47 649.793 1303.46 649.341C1303.05 649.159 1302.68 648.886 1302.38 648.527C1301.32 647.291 1301.45 645.475 1302.67 644.452Z" fill="#FFFBFB" fill-opacity="0.18"/>
<path d="M1385.73 616.889L1385.87 616.942C1387.44 617.507 1388.27 619.183 1387.73 620.692C1387.2 622.202 1385.5 622.971 1383.94 622.409L1383.8 622.357C1383.72 622.33 1383.64 622.299 1383.57 622.266C1382.16 621.631 1381.43 620.043 1381.94 618.607C1382.47 617.097 1384.17 616.328 1385.73 616.889Z" fill="#FFFBFB" fill-opacity="0.18"/>
<path d="M1313.12 610.984C1318.17 607.021 1326.23 605.258 1337.08 605.744C1345.85 606.138 1354.84 607.932 1360.83 609.368C1364.43 610.229 1368.15 611.228 1371.89 612.338C1373.48 612.807 1374.41 614.44 1373.97 615.981C1373.53 617.521 1371.89 618.388 1370.3 617.917C1366.66 616.837 1363.04 615.867 1359.56 615.032C1339.14 610.138 1323.61 610.334 1316.94 615.567C1315.54 616.667 1314.48 618.052 1313.69 619.8C1309.77 628.526 1313.94 638.93 1322.98 642.992C1332.12 647.099 1340.35 652.53 1348.13 659.594C1351.49 662.637 1354.61 665.878 1357.64 669.013C1359.64 671.086 1361.71 673.23 1363.8 675.271C1369.08 680.421 1373.48 683.584 1378.51 685.844C1394.37 692.972 1412.87 686.315 1419.75 671.006C1426.63 655.698 1419.32 637.445 1403.46 630.318C1400.37 628.927 1397.2 627.572 1394.05 626.291C1393.52 626.073 1392.98 625.857 1392.44 625.643C1390.9 625.03 1390.13 623.322 1390.72 621.833C1391.31 620.345 1393.03 619.636 1394.57 620.251C1395.12 620.47 1395.67 620.692 1396.22 620.915C1399.44 622.224 1402.68 623.609 1405.84 625.03C1424.72 633.514 1433.42 655.243 1425.23 673.468C1417.04 691.692 1395.02 699.622 1376.14 691.132C1370.4 688.552 1365.47 685.03 1359.64 679.343C1357.48 677.237 1355.38 675.06 1353.34 672.953C1350.39 669.891 1347.33 666.724 1344.13 663.819C1336.84 657.199 1329.14 652.116 1320.6 648.28C1308.54 642.861 1302.98 628.98 1308.21 617.338C1309.38 614.741 1310.99 612.663 1313.12 610.984Z" fill="#FFFBFB" fill-opacity="0.18"/>
<path d="M1398.49 634.368C1406.15 637.81 1409.93 646.063 1406.92 652.766C1403.9 659.469 1395.22 662.123 1387.56 658.682C1379.9 655.241 1376.12 646.988 1379.14 640.284C1382.15 633.581 1390.83 630.927 1398.49 634.368ZM1389.94 653.394C1394.58 655.477 1399.73 654.091 1401.44 650.304C1403.14 646.517 1400.75 641.74 1396.11 639.656C1391.47 637.573 1386.32 638.958 1384.62 642.746C1382.91 646.533 1385.3 651.31 1389.94 653.394Z" fill="#FFFBFB" fill-opacity="0.18"/>
<path d="M1019.78 -339H-20.782C-162.84 -339 -278 -214.141 -278 -60.1199V728.12C-278 882.141 -162.84 1007 -20.782 1007H1019.78C1161.84 1007 1277 882.141 1277 728.12V-60.1199C1277 -214.141 1161.84 -339 1019.78 -339Z" fill="#F5F5F5"/>
</g>
<defs>
<clipPath id="clip0">
<rect width="1440" height="1024" fill="white"/>
</clipPath>
</defs>
</svg>
