<svg width="1440" height="1024" viewBox="0 0 1440 1024" fill="none" xmlns="http://www.w3.org/2000/svg">
<g clip-path="url(#clip0)">
<path d="M1440 0H0V1024H1440V0Z" fill="#639E2E"/>
<path d="M-12.6965 879.672C-11.5519 879.266 -10.2968 879.865 -9.89147 881.009C-9.48627 882.153 -10.0849 883.409 -11.2289 883.814C-17.1068 885.896 -21.0629 889.223 -22.669 893.434C-23.7472 896.262 -23.641 899.038 -22.3442 901.922C-20.176 906.745 -14.6602 911.819 -5.95027 917.003C1.86868 921.657 12.0897 926.355 25.3158 931.348C45.7307 939.068 60.7951 942.768 71.1643 942.597C68.6325 938.812 66.046 934.44 63.3861 929.452C61.6339 930.436 59.5448 930.732 57.5341 930.193C53.3581 929.072 50.8695 924.72 52.0175 920.527C52.7854 917.724 53.814 914.997 55.0778 912.406C52.838 907.44 50.875 902.809 49.1746 898.478C46.4578 900.671 44.196 903.211 42.4349 906.058C40.933 908.484 39.7785 911.147 39.0034 913.975C37.854 918.164 33.527 920.662 29.3412 919.538C25.1754 918.42 22.707 914.102 23.8611 909.88C25.0326 905.593 26.797 901.528 29.1052 897.796C31.5377 893.866 34.571 890.332 38.1457 887.247C34.1544 885.872 30.1743 884.728 26.2562 883.824C21.1767 886.868 17.265 890.797 14.6283 895.516C13.2368 898.007 12.2033 900.719 11.5571 903.577C10.5983 907.814 6.38714 910.504 2.16725 909.573C-2.01964 908.649 -4.72428 904.44 -3.75905 900.173C-2.7764 895.83 -1.19589 891.69 0.938965 887.868C2.22336 885.569 3.71681 883.379 5.40092 881.32C3.05986 881.328 0.786203 881.447 -1.40143 881.684C-2.58941 881.813 -3.68998 880.957 -3.82216 879.736C-3.95293 878.53 -3.08064 877.446 -1.87403 877.315C11.5963 875.856 28.4045 878.616 44.3879 884.856C43.8264 883.004 43.327 881.217 42.8895 879.493C40.1319 868.626 39.8778 860.482 42.1128 854.596C43.6495 850.549 46.3697 847.627 50.1971 845.913C58.2054 842.326 68.386 845.147 78.8628 853.856C88.9119 862.21 98.1845 875.095 104.972 890.138C114.806 911.933 117.6 934.201 112.265 948.252C110.052 954.079 106.437 958.254 101.81 960.327C97.9713 962.046 94.0207 962.134 89.9843 960.601C85.7111 958.978 81.3415 955.54 76.9072 950.298C75.9984 949.224 75.084 948.071 74.1633 946.842C63.0765 947.812 46.5642 944.082 23.7616 935.458C10.7277 930.529 -0.3344 925.46 -8.19778 920.78C-17.8326 915.045 -23.7708 909.467 -26.3522 903.724C-28.1272 899.776 -28.2694 895.787 -26.7748 891.869C-24.6954 886.416 -19.8272 882.198 -12.6965 879.672ZM11.1129 881.51C8.62166 884.09 6.48891 886.943 4.77488 890.011C2.84553 893.465 1.41619 897.21 0.526859 901.142C0.101091 903.025 1.25797 904.872 3.11604 905.282C4.98008 905.694 6.84382 904.493 7.27067 902.608C8.00991 899.339 9.19471 896.232 10.7919 893.373C13.1099 889.224 16.2704 885.622 20.2152 882.613C17.1147 882.085 14.0715 881.715 11.1129 881.51ZM56.2559 921.688C55.7795 923.425 56.6704 925.209 58.3307 925.839C59.3474 926.225 60.4463 926.109 61.3552 925.551C60.1023 923.089 58.8326 920.492 57.5441 917.757C57.0528 919.043 56.6206 920.355 56.2559 921.688ZM32.8422 900.108C30.756 903.481 29.1604 907.158 28.0994 911.04C27.5917 912.897 28.6608 914.806 30.4968 915.298C32.3388 915.793 34.2535 914.677 34.765 912.813C35.6516 909.579 36.9747 906.529 38.6976 903.745C40.9617 900.085 43.932 896.876 47.5389 894.185C47.0536 892.869 46.5934 891.581 46.1602 890.323C45.0996 889.873 44.025 889.431 42.9373 889.006C38.8532 892.149 35.4597 895.879 32.8422 900.108ZM84.3018 865.379C80.7184 865.442 77.1955 865.952 73.8177 866.909C70.0116 867.987 66.3529 869.624 62.9429 871.776C61.4188 872.738 60.8746 874.655 61.6768 876.237C62.5985 878.053 64.9379 878.677 66.6756 877.58C69.5099 875.791 72.5446 874.432 75.6952 873.54C80.2659 872.246 85.0452 871.933 89.9592 872.594C88.1397 870.03 86.2487 867.618 84.3018 865.379ZM109.572 920.279C105.944 920.169 102.364 920.522 98.905 921.335C95.0544 922.242 91.3254 923.714 87.8216 925.711C86.2546 926.604 85.6226 928.497 86.3526 930.114C87.1894 931.968 89.4971 932.695 91.2812 931.679C94.1934 930.019 97.2865 928.797 100.474 928.046C103.664 927.296 106.975 927.027 110.346 927.225C110.195 924.974 109.937 922.654 109.572 920.279ZM80.262 947.46C87.5703 956.099 94.0308 958.996 100.013 956.317C103.602 954.709 106.342 951.471 108.157 946.692C109.75 942.495 110.513 937.36 110.5 931.638C107.41 931.416 104.384 931.641 101.481 932.324C98.7034 932.978 96.0038 934.045 93.4574 935.497C89.4353 937.789 84.2416 936.119 82.3471 931.921C80.6796 928.226 82.0977 923.915 85.6459 921.893C89.5155 919.687 93.6377 918.061 97.8983 917.058C101.437 916.226 105.086 915.834 108.781 915.872C108.109 912.567 107.247 909.186 106.196 905.77C101.91 904.414 95.7544 903.319 89.0992 904.885C86.3216 905.538 83.6223 906.606 81.0763 908.057C77.2953 910.212 72.4713 908.908 70.3188 905.171C68.1505 901.407 69.4944 896.601 73.2643 894.453C75.6471 893.095 78.151 891.946 80.7061 891.036C81.8489 890.63 83.1061 891.227 83.5128 892.37C83.9197 893.513 83.3225 894.77 82.1791 895.177C79.8667 895.999 77.5996 897.04 75.4407 898.271C73.7645 899.227 73.1781 901.33 74.1275 902.978C75.0795 904.631 77.2207 905.197 78.9006 904.239C81.8129 902.579 84.9056 901.357 88.0931 900.607C93.3212 899.377 98.9297 899.437 104.524 900.755C103.618 898.23 102.614 895.701 101.512 893.184C98.1909 892.752 94.882 892.698 91.6589 893.031C90.4714 893.153 89.3739 892.292 89.2478 891.071C89.1233 889.864 90.0007 888.784 91.2078 888.659C93.8901 888.383 96.6229 888.352 99.3712 888.553C97.5213 884.762 95.5133 881.136 93.3771 877.722C87.635 876.283 82.0931 876.296 76.8929 877.768C74.1473 878.546 71.4988 879.733 69.0208 881.297C65.1051 883.767 59.8368 882.322 57.7583 878.226C55.9234 874.609 57.1441 870.239 60.5979 868.06C64.364 865.683 68.409 863.873 72.6205 862.681C75.1539 861.963 77.7583 861.471 80.4054 861.205C78.975 859.784 77.5222 858.457 76.0529 857.236C72.0913 853.942 68.2393 851.59 64.6234 850.217C59.9164 848.43 55.6105 848.303 51.9927 849.923C49.2312 851.16 47.3431 853.199 46.2203 856.156C44.3431 861.099 44.6552 868.587 47.1483 878.412C48.3943 883.322 50.0889 889.148 52.2134 894.138C59.6164 911.523 68.3018 933.322 80.262 947.46Z" fill="#FFFBFB" fill-opacity="0.18"/>
<path d="M1459.78 -345H419.218C277.16 -345 162 -220.141 162 -66.1199V722.12C162 876.141 277.16 1001 419.218 1001H1459.78C1601.84 1001 1717 876.141 1717 722.12V-66.1199C1717 -220.141 1601.84 -345 1459.78 -345Z" fill="#F5F5F5"/>
</g>
<defs>
<clipPath id="clip0">
<rect width="1440" height="1024" fill="white"/>
</clipPath>
</defs>
</svg>
